<svg xmlns="http://www.w3.org/2000/svg" width="706" height="122" viewBox="0 0 706 122"><title>Group</title><g fill="none" fill-rule="evenodd"><text fill="#000" font-family="Nunito-Bold, Nunito" font-size="72" font-weight="bold"><tspan x="98" y="85">Pizza</tspan></text><text fill="#000" font-family="Nunito-Bold, Nunito" font-size="72" font-weight="bold"><tspan x="427" y="85">Delivery</tspan></text><path d="M0 0h706v122H0z"/><g fill-rule="nonzero"><path fill="#BD6706" d="M315.47 16.29C334 .63 350.67-5.12 371 5.18c6.86 3.45 21.87 11.82 27.11 18.06a58.52 58.52 0 0 1 9.89 16.7c3.85 10 7.4 26.43 5.65 36.73-2.23 13.18-11.51 19.91-22.52 29.21-24.73 20.9-54.12 23.67-82.63-7-24.91-26.74-17.77-61.69 6.97-82.59z"/><path fill="#AA5907" d="M404.4 51.8c2.75 7.43 3.56 15.73 1.34 23.34a44.05 44.05 0 0 1-4.46 9.9 45.74 45.74 0 0 1-5 7.09c-3.15 3.56-7 6.38-10.89 9.17a102.13 102.13 0 0 1-11 7.24 51 51 0 0 1-25.49 6.1c-2.13-.06-4.58-.14-6 1.41 2 3.16 5.91 4.74 9.66 4.82 3.75.08 7.4-1.11 10.89-2.47a110.14 110.14 0 0 0 34.74-21.76c3.69-3.41 7.18-7.13 9.47-11.6 2.87-5.58 3.68-12 4.1-18.24.56-8.53.29-17.72-4.61-24.72a28.75 28.75 0 0 1-2.89-4.23c-.57-1.23-.45-3.29-1.2-4.34-1.43-2-3.7-1.54-4.31.58-1.5 5.02 3.97 13.18 5.65 17.71z"/><path fill="#FCB519" d="M318.4 19.76C335.51 5.32 350.88 0 369.7 9.55c6.3 3.19 20.17 11 25 16.7a54.35 54.35 0 0 1 9.17 15.43c3.56 9.2 6.85 24.42 5.25 33.94-2.05 12.16-10.61 18.38-20.76 26.95-22.83 19.28-50 21.83-76.31-6.49-23.05-24.76-16.47-57.03 6.35-76.32z"/><path fill="#A70411" d="M321 22.83c15.83-13.38 30.07-18.28 47.49-9.46 5.84 3 18.68 10.16 23.16 15.47a49.93 49.93 0 0 1 8.49 14.29c3.3 8.51 6.35 22.61 4.86 31.42-1.9 11.27-9.83 17-19.23 25-21.14 17.86-46.26 20.21-70.66-6-21.34-22.98-15.26-52.87 5.89-70.72z"/><path fill="#F22128" d="M322.47 24.58c15.11-12.77 28.7-17.45 45.33-9 5.57 2.81 17.82 9.69 22.1 14.76A48 48 0 0 1 398 44c3.14 8.13 6 21.58 4.63 30-1.81 10.75-9.38 16.24-18.35 23.82-20.17 17-44.15 19.29-67.43-5.73-20.36-21.95-14.55-50.47 5.62-67.51z"/><path fill="#FCD147" d="M309 65.39c.39 4 1.57 8.2 4.75 10.6 1.08.81 2.58 1.36 3.76.71 1.18-.65 1.49-2.3 1.63-3.7.37-2.57.45-5.172.24-7.76-.49-4.12-2.44-8.24-1.26-12.24.73-2.45 2.54-4.38 4-6.49a23.94 23.94 0 0 0 4.16-12.35c.51-10.31-11.27 5.65-12.6 8.14A41.12 41.12 0 0 0 309 65.39z"/><path fill="#F7CB86" d="M394 43c-.59-2.22-5.26-10.15-6.87-11.13-1.8-1.08-4.49-.88-5.55-2.7-.49-.85-.46-1.94-1-2.74-.77-1.06-2.34-1.17-3.6-.8-1.26.37-2.39 1.1-3.66 1.42-2.43.81-3.56-.8-3.74-2.8a7 7 0 0 0-5.61-6.44c-1.39-.26-2.81-.5-4.29-.71-24.33-3.45-47.6 11.3-53.28 38.54-2 9.74 9.81 5.84 8.32 10.29a34.88 34.88 0 0 1-2.36 4.79 9.87 9.87 0 0 0-1.36 5.05 4.43 4.43 0 0 0 2.95 4c1.29.34 3 .06 3.66 1.24.188.403.274.846.25 1.29l.14 5.82c0 .31-.37 3.81 3.66 6.84a73.54 73.54 0 0 0 10.76 7.23 2.6 2.6 0 0 0 2.63-.19c.48-.3 1.12-.24 1.9.48.246.28.4.63.44 1a2.46 2.46 0 0 0 1.61 1.79 40.9 40.9 0 0 0 5.38 1.73 2.36 2.36 0 0 0 2.48-.87 23.1 23.1 0 0 0 1.27-2.82c1.32-2.56 4.49-3.63 7.36-3.57 2.87.06 5.66 1 8.51 1.41 8.65 1.19 17.08-2.76 24.9-6.71a2 2 0 0 0 .39-.25c3.38-2.55 6.31-5.35 7.85-8.36 2.2-4.3 1.54-10 2.25-15 .89-6.13-3.89-22.27-5.39-27.83z"/><path fill="#F7D9B0" d="M318.39 51.82c-1.77 6.52-.23 14.45 5.41 18.18 2.14 1.43 4.74 2.17 6.6 4 2.53 2.42 3.33 6.42 6.28 8.3 3.81 2.44 8.82 0 13.33.45 2.56.24 4.92 1.41 7.38 2.12 6.16 1.77 13.26.47 18-3.86s6.61-11.75 3.93-17.58a14.16 14.16 0 0 1-1.47-3.68c-.37-2.62 1.44-5 2.41-7.44 1.75-4.39.78-9.41-.92-13.82-1.31-3.41-3.3-6.9-6.67-8.28a12.52 12.52 0 0 0-5.61-.66 29.51 29.51 0 0 0-14.89 5.25 8.8 8.8 0 0 1-2.52 1.44c-3.61 1.08-6.86-2.82-10.09-3.8-2.85-.86-6.39-.92-9 .61-5.62 3.28-10.56 12.82-12.17 18.77z"/><path fill="#F9E5CF" d="M325.77 64a15.25 15.25 0 0 0 2.74 6c4.16 5 11.8 5 18.36 4.54a26.59 26.59 0 0 0 8.18-1.44c6-2.41 9.44-8.78 11.13-15a27.5 27.5 0 0 0 .73-13.41c-3.07-13.19-18.19-13.29-28.69-9.22-10.5 4.07-15.05 18.28-12.45 28.53z"/><path fill="#407200" d="M348.37 34c-.56-2.74-.89-5.73.42-8.2 1.64-3.09 5.37-4.48 7.43-7.29a14.2 14.2 0 0 0 3.39 4 8.13 8.13 0 0 1 1.61 7.34 1.67 1.67 0 0 1-.78 1.15.57.57 0 0 1 .55.07 19.06 19.06 0 0 1-2.53 3.76c.18 0 .18.25.11.41a6.76 6.76 0 0 1-5.78 3.83c-2.94.17-3.92-2.53-4.42-5.07z"/><path fill="#3A6003" d="M353.41 33.7a17.46 17.46 0 0 0 .17-2.16 24.85 24.85 0 0 1 3.05-12.12c-.63 2-1.22 3.89-1.69 5.9-.18.76-.36 1.52-.48 2.3-.29 1.8-.26 3.64-.4 5.46a17 17 0 0 1-.42 2.83c-.14.56-.72 3.31-1.37 3.42-1 .16.36-2.32.5-2.64.36-.96.575-1.967.64-2.99z"/><path fill="#406807" d="M357.52 35.27a23.06 23.06 0 0 0 2.4-3.39h-.45a10.1 10.1 0 0 0 .87-2.19h-.44a7.53 7.53 0 0 0 .43-2.69 3.55 3.55 0 0 0-1-2.42L359 25a28 28 0 0 1-1.86-3.82 5.44 5.44 0 0 0-1.39 2 8.77 8.77 0 0 0-.53 1.9c-.53 2.87-.47 5.85-1.21 8.67a13.84 13.84 0 0 0-.46 2c-.11 1 0 2.16 1.22 1.69a7.58 7.58 0 0 0 2.75-2.17z"/><path fill="#4F8403" d="M348.71 31.23c-.27-1.11-.51-2.38.14-3.31.16-.22.36-.41.53-.62.67-.84.91-2.06 1.83-2.62a5.31 5.31 0 0 1 .9 2.94v3.11c0 1.03 1.33 6.18-.47 6.25-.88 0-1.63-1.76-1.91-2.41a19.54 19.54 0 0 1-1.02-3.34z"/><path fill="#6FA200" d="M351.69 42.1c.39-.19.84-2.07 1-2.5.4-1 .78-1.94 1.09-2.93a5.92 5.92 0 0 0 1.05-.45 18.43 18.43 0 0 0 2.59-1 5.56 5.56 0 0 0 2.58-3.05 9.59 9.59 0 0 1-6.08 4c.172-.62.299-1.252.38-1.89a11.3 11.3 0 0 0 .08-1.16 10.4 10.4 0 0 0 1.51-1.39 17.68 17.68 0 0 0 3.36-3.5 6 6 0 0 0 1-4.63 7.27 7.27 0 0 1-1.5 4.82 15.43 15.43 0 0 1-3.75 3.5 3.9 3.9 0 0 0-.6.49v-.82c.07-2.015.297-4.02.68-6 .23 0 .52-.17.68-.18.23.025.46.025.69 0a3.16 3.16 0 0 0 .52-.26c.36-.15.78-.12 1.1-.34.19-.15.338-.346.43-.57a4.73 4.73 0 0 0 .5-1.9l-.77 1.35a3.38 3.38 0 0 1-.55.79 2.94 2.94 0 0 1-2.23.58h-.25c.38-1.91.87-3.8 1.41-5.67a24.09 24.09 0 0 0-2.44 7.81l-.06.53c-.24-.19-.63-.35-.83-.53a4.54 4.54 0 0 1-1.28-1.92 3.73 3.73 0 0 1-.19-1v.1a4 4 0 0 0 0 1 4.05 4.05 0 0 0 1.53 2.32 5 5 0 0 1 .74.72c-.07.79-.12 1.58-.17 2.38-.28-.24-.79-.35-1.1-.57a10.06 10.06 0 0 1-1.81-1.72 6.1 6.1 0 0 1-1-1.51 4.3 4.3 0 0 0 1 2c.23.3.47.59.71.89.172.235.366.453.58.65.195.154.402.29.62.41l.78.46.13.05a25 25 0 0 1-.62 4.54l-.12-.13c-.46-.42-1.22-.62-1.73-1a6.64 6.64 0 0 1-1.35-1.43 12.72 12.72 0 0 1-1.6-4.17l.66 2.6c.08.365.19.723.33 1.07a6.17 6.17 0 0 0 1.94 2.31 7.38 7.38 0 0 0 1.67 1.34 10.18 10.18 0 0 1-.85 2 11.84 11.84 0 0 0-1 2c-.15.41-.33 1.94.54 1.51z"/><path fill="#6FA200" d="M351.81 24.33c.055-.55.156-1.096.3-1.63a3 3 0 0 0-.3 1.63z"/><path fill="#407200" d="M386.27 65.44c2.78.32 5.73.93 7.67 2.94 2.43 2.51 2.59 6.49 4.63 9.33a13.92 13.92 0 0 0-4.83 2 8.17 8.17 0 0 1-7.48-.71 1.73 1.73 0 0 1-.86-1.11.56.56 0 0 1-.23.51 18.56 18.56 0 0 1-2.79-3.57c0 .17-.3.09-.43 0a6.81 6.81 0 0 1-1.85-6.69c.75-2.9 3.63-3 6.17-2.7z"/><path fill="#3A6003" d="M385 70.34c.647.322 1.315.6 2 .83a24.79 24.79 0 0 1 10.59 6.65c-1.68-1.2-3.33-2.36-5.09-3.43-.67-.41-1.34-.82-2-1.17-1.62-.83-3.38-1.37-5.07-2.07a17.42 17.42 0 0 1-2.56-1.27c-.49-.31-2.92-1.72-2.83-2.37.16-1 2.1 1.06 2.36 1.29a10.15 10.15 0 0 0 2.6 1.54z"/><path fill="#406807" d="M382.26 73.76a22.85 22.85 0 0 0 2.48 3.33l.15-.42a10 10 0 0 0 1.81 1.5l.13-.42a7.49 7.49 0 0 0 2.4 1.25 3.52 3.52 0 0 0 2.63-.24l-.26-.38a28.25 28.25 0 0 1 4.21-.59 5.72 5.72 0 0 0-1.44-1.93 8.66 8.66 0 0 0-1.64-1.09c-2.57-1.39-5.42-2.25-7.88-3.83a13.47 13.47 0 0 0-1.74-1.06c-.9-.4-2.06-.64-2 .64a7.8 7.8 0 0 0 1.15 3.24z"/><path fill="#4F8403" d="M388.83 66.63c1.14.09 2.42.26 3.1 1.17.16.21.28.46.43.69.59.9 1.68 1.5 1.92 2.55a5.27 5.27 0 0 1-3.07-.04c-1-.28-2-.69-3-1-1-.31-6.28-.65-5.79-2.38.24-.85 2.18-1 2.89-1.07a19.38 19.38 0 0 1 3.52.08z"/><path fill="#6FA200" d="M377.57 66.1c.06.43 1.71 1.44 2.07 1.74.79.67 1.59 1.34 2.44 1.94a6 6 0 0 0 .11 1.14 18.16 18.16 0 0 0 .13 2.76 5.55 5.55 0 0 0 2.12 3.41 9.55 9.55 0 0 1-2-7 13.31 13.31 0 0 0 1.69 1c.35.16.71.3 1.07.44.222.643.507 1.263.85 1.85a18.21 18.21 0 0 0 2.29 4.29 6 6 0 0 0 4.13 2.33 7.3 7.3 0 0 1-4.11-2.92 15.43 15.43 0 0 1-2.14-4.66 4.28 4.28 0 0 0-.28-.72l.77.27a38.94 38.94 0 0 1 5.46 2.49v.7a3.37 3.37 0 0 0-.19.67c0 .19.07.38.09.58a5.53 5.53 0 0 0 0 1.15c.08.228.217.432.4.59a5 5 0 0 0 1.67 1L393 78a3.31 3.31 0 0 1-.58-.77 3 3 0 0 1 .18-2.23 1 1 0 0 0 .05-.24c1.7 1 3.35 2 5 3.09a24.08 24.08 0 0 0-6.67-4.73l-.49-.23c.25-.17.52-.49.76-.62a4.29 4.29 0 0 1 3.22-.53h-.09a4.42 4.42 0 0 0-.93-.31 4.09 4.09 0 0 0-2.68.74 4.66 4.66 0 0 1-.91.48c-.73-.31-1.47-.6-2.21-.9.31-.18.57-.63.88-.86a10.09 10.09 0 0 1 2.16-1.13 5.64 5.64 0 0 1 1.73-.51 4.2 4.2 0 0 0-2.16.39l-1.07.4a4.09 4.09 0 0 0-.8.36 4.9 4.9 0 0 0-.57.45l-.69.61-.09.1a25 25 0 0 1-4.19-2l.17-.07c.54-.31 1-1 1.5-1.33a6.9 6.9 0 0 1 1.81-.88 12.6 12.6 0 0 1 4.46-.23l-2.67-.18a7 7 0 0 0-1.12 0 6.18 6.18 0 0 0-2.8 1.13 7.61 7.61 0 0 0-1.82 1.26 10.72 10.72 0 0 1-1.66-1.43 12.27 12.27 0 0 0-1.55-1.59c-.32-.42-1.74-1.1-1.6-.14z"/><path fill="#6FA200" d="M394.43 71.71c.502.228.987.492 1.45.79a3 3 0 0 0-1.45-.79z"/><path fill="#F98030" d="M370.6 90.72a21.11 21.11 0 0 0-3.12-.72 9.25 9.25 0 0 0-3.39.47l.06.35 1.12.07a7.23 7.23 0 0 0-1 .36l.08.35h-.24l.29.52-.29.06.11.26a8.46 8.46 0 0 0 2.4.09l-1.14.53c.037.16.094.315.17.46a26 26 0 0 0 3.24-.79 7.14 7.14 0 0 0 1.83-.73 4.56 4.56 0 0 0 0-.64 2.42 2.42 0 0 0-.12-.64z"/><path fill="#CA9677" d="M364.13 90.69v.17l1.12.07a13.29 13.29 0 013.21-.36 11.67 11.67 0 00-4.33.12zM364.28 91.46v.18a21.2 21.2 0 013.87-.36 13 13 0 00-3.87.18zM364.29 92l.09.17a26.74 26.74 0 013.49-.6 16.67 16.67 0 00-3.58.43zM364.17 92.44a10.83 10.83 0 004.4-.58s-1.26 1.19-4.37.65l-.03-.07z" style="mix-blend-mode:multiply"/><path fill="#F66C03" d="M370.71 91.37a2.42 2.42 0 0 0-.11-.65s-.62-.19-1.45-.38c.32.08 1.14.3 1.31.64.17.34-.94 1.58-4.9 2.46a1 1 0 0 0 .07.15 26 26 0 0 0 3.24-.79 7.14 7.14 0 0 0 1.85-.8 4.56 4.56 0 0 0-.01-.63z"/><path fill="#C76145" d="M364.33 92.32a15.76 15.76 0 0 0 4.43-.68c1.48-.63 1.43-1 .54-1.21a10.7 10.7 0 0 0-3.42-.29c1.082.07 2.155.23 3.21.48a11.32 11.32 0 0 0-3.76.44 16.17 16.17 0 0 1 4 0 6.18 6.18 0 0 1-1.91.23 9.39 9.39 0 0 0 1.23.09 14.68 14.68 0 0 1-4.32.94z" opacity=".7" style="mix-blend-mode:screen"/><path fill="#E26107" d="M371 84.23a5.57 5.57 0 0 1 1.3.68s-.33-.29-1.23.1c-.9.39-.4 1.47-.26 1.75 0 0 .06-1.09.61-1.29a1.55 1.55 0 0 1 1.72.36 2.37 2.37 0 0 0-1.52.18c-.76.38-.37 1.46-.37 1.46s.39-1 .82-1.17a1.15 1.15 0 0 1 1.62 1.06s-1.15-.74-1.86.12c0 0 1.48-.28 1.76.65 0 0-1.6-.64-2.39 0 0 0 1.5 0 1.56.76.06.76-.8.86-.8.86s.07-.67-.92-.71c.09 0 1 .74.29 1.39-.71.65 2 .71 3.12-.73a4 4 0 0 0 .39-4.29c-.5-.9-2.58-2.01-3.84-1.18z"/><path fill="#CA9677" d="M373.59 87.3l.1.09h.06l.07.06.07.07.07.06.07.07.06.07.07.07v.06a.75.75 0 01.09.09v-.12-.16a.27.27 0 00-.07-.08l-.07-.08-.11-.01-.09-.06-.08-.05h-.2l-.04-.08zM373.52 88.05l.1.21V88.47l.06.11v.13l.06.12V89.16a.28.28 0 010 .15v-.05a.25.25 0 000-.18.43.43 0 000-.11.35.35 0 000-.13.56.56 0 000-.12 1.12 1.12 0 010-.13c0-.05 0-.09-.07-.13a.75.75 0 00-.07-.12l-.07-.1-.07-.09-.12-.12.18.02zM373.07 85.85l.25.09H373.73l.14.06.15.06.13.06.12.07.11.06h.05a.18.18 0 01.07.05h.06v-.06a.35.35 0 000-.08l-.1-.09-.12-.09-.14-.08-.27.1h-.59l-.27-.15zM372.16 84.84s.14.06.37.13l.18.06.21.06.22.06.22.06.23.06h.22l.21.05H374.6h-.1l-.27-.11-.18-.06-.2-.07-.22-.06-.23-.06-.23.04H372.6l-.44-.16z"/><path fill="#F66C03" d="M379 89.08c2.34-2.35.35-5.79.35-5.79a4.19 4.19 0 0 0-2-3.18 8.79 8.79 0 0 0-3.75-1.24c0 .11-.25 0-.25 0a8.19 8.19 0 0 0-5.14.61c-.62.28-.64.64-.86 1.34l1.81 3.07s.63-.14.66-.08c.03.06.24.36.8.58h.14a9.71 9.71 0 0 0 2.64.42c.167.28.384.528.64.73a4.84 4.84 0 0 0 .36 2 2.1 2.1 0 0 0-.51 1.81c-1.24-.09-3.77 1.44-3.77 1.44s-.94.83.87 1.36a7.21 7.21 0 0 0 4.09-.46 5.73 5.73 0 0 0 3.92-2.61z"/><path fill="#F5E1CD" d="M370.78 84.47a5.75 5.75 0 00-2.55-5c-2.48 1-.38 3.52.29 4.3a2.19 2.19 0 001.69.81l.57-.11zM379.17 82.43a7.46 7.46 0 01-2.65 1.47 3.81 3.81 0 00-2.45 1.67 4.73 4.73 0 012.59-1.27 8.78 8.78 0 002.84-.69 2.93 2.93 0 00-.2-.35 1.68 1.68 0 00-.13-.83zM374.66 79a2.91 2.91 0 01-.29 1.53 7.21 7.21 0 00-1 4 5.81 5.81 0 01-.29-2.88 3.9 3.9 0 00.32-2.8c.424 0 .847.051 1.26.15zM374.42 87.52a5.5 5.5 0 012.25.17 19.31 19.31 0 001.76.89 6.89 6.89 0 001 0 1.91 1.91 0 01-.4.45c-.11.173-.23.34-.36.5 0 0-1.11-.16-1.33-.43a3.79 3.79 0 00-1.23-1.08 6.35 6.35 0 00-1.73-.46l.04-.04zM373.92 89.33c.464.122.88.384 1.19.75a1.94 1.94 0 01.32 1.55h-.32l-.18.07a1.6 1.6 0 00.15-1.3 2.7 2.7 0 00-1.16-1.07z"/><path fill="#F98030" d="M377.66 83c1-.72.68-1.33-.06-2.1a4 4 0 0 0-2.39-1.11c-.24.08-.47 1-.8 1.55-.33.55-.67 2.16-.07 2.52.6.36 2.82-.54 3.32-.86z"/><path fill="#F3D9B8" d="M375.88 80.43c.49.26 1.7.72 1.66 1.45-.04.73-.89-.09-1.22-.12-.51-.06-1 .43-.95-.43.01-.33.01-1.08.51-.9z"/><path fill="#F98030" d="M378.78 88.11c.6 0 1.07-1.59 1-2.25-.07-.66-.38-1.63-1.48-1.51a7.28 7.28 0 00-2.92.75c-.26.31.26 1.5.8 1.79a9 9 0 002.6 1.22zM376.83 90.71c.82-.45.93-.92.75-1.08-.18-.16-.64-.37-.78-.62a1.71 1.71 0 00-1.46-.58c-.49.15.15 1.41.26 1.71.11.3.27 1.1 1.23.57z"/><path fill="#F3D9B8" d="M377.06 85.36a2.48 2.48 0 011.58-.3c.62.18.51.88.42 1.36-.09.48-.44 1.52-1.24 1-.29-.21-.48-.55-.76-.78-.28-.23-.39-.21-.45-.42s.11-.67.45-.86zM376.29 89.13v.06-.06zM375.9 90c-.15-.5 0-1.21.51-.68l-.08-.09c.3.32.83.53.36.93s-.69.25-.79-.16z"/><path fill="#F98030" d="M371.78 91.2c.25 0 .5.16.76.19.242.01.483-.01.72-.06.26 0 .8 0 .95-.33.15-.33 0-.22-.09-.44s-.17-.4-.13-.49c.04-.09.26-.15.4 0 .15.22.27.459.36.71.16.53 0 .92-.6 1-1 .15-1.72.44-2.48-.3-.23-.19-.27-.29.11-.28zM371.21 82.85a15.41 15.41 0 00-.88-2c-.14-.25-.63-.56-.65-.84-.06-.61 1.69-.55 2.13-.59.65-.07 1.39 0 1.28.75 0 .47-.31.9-.37 1.38.01.357-.03.714-.12 1.06-.22.47-1.16.71-1.39.24z"/><path fill="#F3D9B8" d="M371.87 79.86a.69.69 0 0 1 .47.11c.12.12.17.294.13.46a1.92 1.92 0 0 1-.18.45 2.83 2.83 0 0 0-.21 1.12c0 .09 0 .19-.06.25a.24.24 0 0 1-.2 0 .67.67 0 0 1-.4-.34 4.4 4.4 0 0 1-.18-.51 3.06 3.06 0 0 0-.33-.71c-.13-.21-.44-.65-.12-.85.32-.2.82.03 1.08.02z"/><path fill="#496F00" d="M334.25 56.81a5.93 5.93 0 0 0-1.76-4.17 8.53 8.53 0 0 0 4.73-4.09 5.44 5.44 0 0 0-.79-6c-1.5-1.54-3.87-1.8-6-1.6a10 10 0 0 0-5.23 2.27c-1.65-2.15-3.27-4.78-6.46-4.46a4.64 4.64 0 0 0-1.79 8.66 2.84 2.84 0 0 0-2.51 1.31 7.32 7.32 0 0 0-1.56 6 5.76 5.76 0 0 0 4.12 4.4 4.74 4.74 0 0 0 5.3-2.53c1.39 2.25 3.61 4.19 6.24 4.47 2.63.28 5.56-1.61 5.71-4.26zm-6.71 1.44a6.69 6.69 0 0 1-4.69-3.36 3.56 3.56 0 0 1-4 1.9 4.31 4.31 0 0 1-3.1-3.3 5.48 5.48 0 0 1 1.19-4.49 2.1 2.1 0 0 1 1.88-1 3.48 3.48 0 0 1 1.35-6.5c2.39-.24 3.6 1.73 4.84 3.34a7.59 7.59 0 0 1 3.93-1.7 5.52 5.52 0 0 1 4.51 1.2 4.07 4.07 0 0 1 .55 4.51 6.37 6.37 0 0 1-3.55 3.07 4.44 4.44 0 0 1 1.32 3.13c-.07 1.95-2.25 3.41-4.23 3.2z"/><path fill="#B9DE19" d="M331.73 52.37a7.69 7.69 0 0 0 4.27-3.71 4.91 4.91 0 0 0-.71-5.4c-1.36-1.39-3.51-1.63-5.44-1.45a9.15 9.15 0 0 0-4.74 2c-1.5-2-3-4.32-5.84-4a4.2 4.2 0 0 0-1.63 7.84 2.55 2.55 0 0 0-2.27 1.19 6.62 6.62 0 0 0-1.37 5.42 5.2 5.2 0 0 0 3.74 4 4.28 4.28 0 0 0 4.77-2.26 8.06 8.06 0 0 0 5.66 4c2.39.26 5-1.46 5.16-3.85a5.39 5.39 0 0 0-1.6-3.78zm-4 6.38a7.06 7.06 0 0 1-5-3.55 3.76 3.76 0 0 1-4.21 2 4.57 4.57 0 0 1-3.29-3.5 5.79 5.79 0 0 1 1.26-4.7 2.26 2.26 0 0 1 2-1 3.68 3.68 0 0 1 1.42-7c2.53-.26 3.82 1.83 5.13 3.54a8.11 8.11 0 0 1 4.16-1.81c1.7-.15 3.59.06 4.79 1.28a4.33 4.33 0 0 1 .62 4.75 6.78 6.78 0 0 1-3.76 3.25 4.78 4.78 0 0 1 1.4 3.32c-.12 2.14-2.43 3.67-4.53 3.42h.01z"/><path fill="#9AC00D" d="M334.25 56.81a5.93 5.93 0 0 0-1.76-4.17 8.53 8.53 0 0 0 4.73-4.09 5.44 5.44 0 0 0-.79-6c-1.5-1.54-3.87-1.8-6-1.6a10 10 0 0 0-5.23 2.27c-1.65-2.15-3.27-4.78-6.46-4.46a4.64 4.64 0 0 0-1.79 8.66 2.84 2.84 0 0 0-2.51 1.31 7.32 7.32 0 0 0-1.56 6 5.76 5.76 0 0 0 4.12 4.4 4.74 4.74 0 0 0 5.3-2.53c1.39 2.25 3.61 4.19 6.24 4.47 2.63.28 5.56-1.61 5.71-4.26zM328.17 60a8.06 8.06 0 0 1-5.66-4 4.28 4.28 0 0 1-4.8 2.29 5.2 5.2 0 0 1-3.74-4 6.62 6.62 0 0 1 1.41-5.4 2.55 2.55 0 0 1 2.27-1.19 4.2 4.2 0 0 1 1.63-7.84c2.88-.29 4.34 2.08 5.84 4a9.15 9.15 0 0 1 4.74-2c1.93-.18 4.08.06 5.44 1.45a4.91 4.91 0 0 1 .71 5.4 7.69 7.69 0 0 1-4.28 3.71 5.39 5.39 0 0 1 1.6 3.78c-.14 2.34-2.77 4.06-5.16 3.8z"/><path fill="#FFF" d="M316.55 40.93a4.29 4.29 0 0 0-.65 3 3.88 3.88 0 0 1 1.69-2.87 6.58 6.58 0 0 1 3.22-1 3.05 3.05 0 0 0-4.26.87z"/><path fill="#496F00" d="M381.48 54.09a6 6 0 0 0-1.76-4.18 8.4 8.4 0 0 0 4.72-4.09 5.42 5.42 0 0 0-.78-6c-1.5-1.54-3.88-1.8-6-1.6a10.11 10.11 0 0 0-5.23 2.27c-1.66-2.15-3.27-4.78-6.46-4.45a4.63 4.63 0 0 0-1.79 8.65 2.87 2.87 0 0 0-2.53 1.31 7.32 7.32 0 0 0-1.55 6 5.74 5.74 0 0 0 4.13 4.4 4.73 4.73 0 0 0 5.3-2.53c1.4 2.26 3.61 4.19 6.25 4.47 2.64.28 5.55-1.6 5.7-4.25zm-6.72 1.43a6.64 6.64 0 0 1-4.68-3.36 3.56 3.56 0 0 1-4 1.9 4.31 4.31 0 0 1-3.1-3.3 5.52 5.52 0 0 1 1.16-4.48 2.15 2.15 0 0 1 1.89-1 3.48 3.48 0 0 1 1.35-6.5c2.39-.24 3.6 1.73 4.84 3.34a7.67 7.67 0 0 1 3.93-1.7 5.53 5.53 0 0 1 4.51 1.2 4.07 4.07 0 0 1 .58 4.48 6.28 6.28 0 0 1-3.54 3.07 4.47 4.47 0 0 1 1.3 3.16c-.07 1.98-2.26 3.4-4.24 3.19z"/><path fill="#B9DE19" d="M379 49.64a7.7 7.7 0 0 0 4.28-3.7 4.92 4.92 0 0 0-.71-5.41c-1.36-1.39-3.51-1.63-5.44-1.45a9.16 9.16 0 0 0-4.74 2.06c-1.5-2-3-4.33-5.84-4a4.19 4.19 0 0 0-1.63 7.83 2.57 2.57 0 0 0-2.27 1.19 6.59 6.59 0 0 0-1.41 5.4 5.2 5.2 0 0 0 3.74 4 4.29 4.29 0 0 0 4.8-2.28 8 8 0 0 0 5.66 4c2.38.26 5-1.45 5.15-3.85a5.39 5.39 0 0 0-1.59-3.79zM375 56a7.1 7.1 0 0 1-5-3.56 3.77 3.77 0 0 1-4.22 2 4.56 4.56 0 0 1-3.3-3.44 5.84 5.84 0 0 1 1.23-4.75 2.26 2.26 0 0 1 2-1 3.69 3.69 0 0 1 1.43-6.89c2.53-.26 3.82 1.83 5.13 3.54a8.06 8.06 0 0 1 4.16-1.8c1.7-.16 3.59.05 4.78 1.27a4.34 4.34 0 0 1 .63 4.75 6.74 6.74 0 0 1-3.76 3.25 4.78 4.78 0 0 1 1.4 3.32c-.12 2.06-2.48 3.56-4.48 3.31z"/><path fill="#9AC00D" d="M381.48 54.09a6 6 0 0 0-1.76-4.18 8.4 8.4 0 0 0 4.72-4.09 5.42 5.42 0 0 0-.78-6c-1.5-1.54-3.88-1.8-6-1.6a10.11 10.11 0 0 0-5.23 2.27c-1.66-2.15-3.27-4.78-6.46-4.45a4.63 4.63 0 0 0-1.79 8.65 2.87 2.87 0 0 0-2.53 1.31 7.32 7.32 0 0 0-1.55 6 5.74 5.74 0 0 0 4.13 4.4 4.73 4.73 0 0 0 5.3-2.53c1.4 2.26 3.61 4.19 6.25 4.47 2.64.28 5.55-1.6 5.7-4.25zm-6.08 3.18a8 8 0 0 1-5.66-4 4.29 4.29 0 0 1-4.8 2.28 5.2 5.2 0 0 1-3.74-4 6.59 6.59 0 0 1 1.41-5.4 2.57 2.57 0 0 1 2.27-1.19 4.19 4.19 0 0 1 1.63-7.83c2.88-.3 4.34 2.08 5.84 4a9.16 9.16 0 0 1 4.74-2.06c1.93-.18 4.08.06 5.44 1.45a4.92 4.92 0 0 1 .71 5.41 7.7 7.7 0 0 1-4.24 3.71 5.39 5.39 0 0 1 1.59 3.78c-.17 2.4-2.81 4.11-5.19 3.85z"/><path fill="#FFF" d="M363.78 38.21a4.23 4.23 0 0 0-.65 3 3.86 3.86 0 0 1 1.69-2.87 6.56 6.56 0 0 1 3.22-1 3.05 3.05 0 0 0-4.26.87z"/><path fill="#496F00" d="M338.76 88a6 6 0 0 0-1.76-4.21 8.44 8.44 0 0 0 4.72-4.09 5.42 5.42 0 0 0-.78-6c-1.5-1.54-3.87-1.8-6-1.6a10.14 10.14 0 0 0-5.24 2.3c-1.7-2.15-3.27-4.78-6.46-4.4a4.63 4.63 0 0 0-1.79 8.65 2.86 2.86 0 0 0-2.51 1.31 7.32 7.32 0 0 0-1.56 6 5.74 5.74 0 0 0 4.13 4.4 4.75 4.75 0 0 0 5.31-2.53c1.39 2.26 3.6 4.19 6.24 4.47 2.64.28 5.55-1.69 5.7-4.3zm-6.71 1.4a6.66 6.66 0 0 1-4.69-3.4 3.56 3.56 0 0 1-4 1.9 4.31 4.31 0 0 1-3.1-3.3 5.49 5.49 0 0 1 1.17-4.48 2.13 2.13 0 0 1 1.88-1 3.48 3.48 0 0 1 1.35-6.5c2.39-.24 3.6 1.73 4.84 3.34a7.67 7.67 0 0 1 3.93-1.7 5.53 5.53 0 0 1 4.57 1.26 4.09 4.09 0 0 1 .55 4.48 6.33 6.33 0 0 1-3.55 3.07 4.46 4.46 0 0 1 1.32 3.13c-.11 1.99-2.32 3.41-4.27 3.2z"/><path fill="#B9DE19" d="M336.24 83.52a7.68 7.68 0 0 0 4.28-3.71 4.91 4.91 0 0 0-.71-5.4c-1.36-1.41-3.51-1.63-5.44-1.41a9.15 9.15 0 0 0-4.74 2c-1.5-1.94-3-4.32-5.84-4a4.2 4.2 0 0 0-1.63 7.84 2.57 2.57 0 0 0-2.27 1.16 6.62 6.62 0 0 0-1.41 5.4 5.2 5.2 0 0 0 3.74 4 4.28 4.28 0 0 0 4.78-2.3 8 8 0 0 0 5.66 4.05c2.38.26 5-1.45 5.16-3.85a5.4 5.4 0 0 0-1.58-3.78zm-4 6.39a7.1 7.1 0 0 1-5-3.56 3.76 3.76 0 0 1-4.21 2 4.56 4.56 0 0 1-3.29-3.5 5.8 5.8 0 0 1 1.26-4.73 2.25 2.25 0 0 1 2-1.05 3.69 3.69 0 0 1 1.43-6.88c2.53-.26 3.82 1.83 5.13 3.54a8 8 0 0 1 4.16-1.8c1.7-.16 3.59 0 4.78 1.27a4.31 4.31 0 0 1 .62 4.8 6.74 6.74 0 0 1-3.76 3.25 4.78 4.78 0 0 1 1.4 3.32c-.12 2.06-2.43 3.56-4.53 3.34h.01z"/><path fill="#9AC00D" d="M338.76 88a6 6 0 0 0-1.76-4.21 8.44 8.44 0 0 0 4.72-4.09 5.42 5.42 0 0 0-.78-6c-1.5-1.54-3.87-1.8-6-1.6a10.14 10.14 0 0 0-5.24 2.3c-1.7-2.15-3.27-4.78-6.46-4.4a4.63 4.63 0 0 0-1.79 8.65 2.86 2.86 0 0 0-2.51 1.31 7.32 7.32 0 0 0-1.56 6 5.74 5.74 0 0 0 4.13 4.4 4.75 4.75 0 0 0 5.31-2.53c1.39 2.26 3.6 4.19 6.24 4.47 2.64.28 5.55-1.69 5.7-4.3zm-6.08 3.18A8 8 0 0 1 327 87.1a4.28 4.28 0 0 1-4.8 2.29 5.2 5.2 0 0 1-3.74-4 6.62 6.62 0 0 1 1.43-5.39 2.57 2.57 0 0 1 2.27-1.19 4.2 4.2 0 0 1 1.63-7.81c2.88-.29 4.34 2.09 5.84 4a9.15 9.15 0 0 1 4.74-2c1.93-.18 4.08.06 5.44 1.45a4.91 4.91 0 0 1 .71 5.4 7.68 7.68 0 0 1-4.28 3.71 5.4 5.4 0 0 1 1.6 3.78c-.14 2.36-2.78 4.07-5.16 3.81v.03z"/><path fill="#FFF" d="M321.06 72.09a4.27 4.27 0 0 0-.65 3 3.86 3.86 0 0 1 1.69-2.86 6.56 6.56 0 0 1 3.22-1 3 3 0 0 0-4.26.86z"/><path fill="#407200" d="M339.7 60c-2.79.18-5.8.12-8.07-1.51-2.84-2-3.73-5.91-6.24-8.33a14.1 14.1 0 0 0 4.39-2.84 8.13 8.13 0 0 1 7.48-.62c.467.146.85.484 1.05.93a.56.56 0 0 1 .14-.54 19.8 19.8 0 0 1 3.39 3c0-.18.28-.15.42-.06a6.79 6.79 0 0 1 3 6.25c-.2 2.9-3.01 3.52-5.56 3.72z"/><path fill="#3A6003" d="M340 54.92a17.24 17.24 0 0 0-2.11-.45 24.84 24.84 0 0 1-11.62-4.63c1.87.89 3.7 1.72 5.63 2.46.73.28 1.46.56 2.21.78 1.75.52 3.58.74 5.37 1.12a16.48 16.48 0 0 1 2.74.79c.54.21 3.19 1.15 3.21 1.81 0 1-2.25-.66-2.55-.84a10.33 10.33 0 0 0-2.88-1.04z"/><path fill="#406807" d="M342.15 51.06a23.35 23.35 0 0 0-3-2.83c0 .15-.05.3-.07.45a10.34 10.34 0 0 0-2.08-1.15l-.06.43a7.63 7.63 0 0 0-2.58-.78 3.57 3.57 0 0 0-2.54.71l.33.34a28.54 28.54 0 0 1-4 1.34 5.87 5.87 0 0 0 1.76 1.64 9.12 9.12 0 0 0 1.82.77c2.77.9 5.73 1.24 8.43 2.35.621.28 1.259.52 1.91.72 1 .23 2.14.25 1.83-1a7.85 7.85 0 0 0-1.75-2.99z"/><path fill="#4F8403" d="M337 59.26c-1.14.12-2.42.19-3.26-.58-.2-.19-.36-.41-.55-.61-.74-.78-1.92-1.17-2.35-2.16a5.23 5.23 0 0 1 3-.5c1 .08 2.06.32 3.09.4 1.03.08 6.3-.5 6.13 1.29-.09.88-2 1.39-2.64 1.58a20.21 20.21 0 0 1-3.42.58z"/><path fill="#407200" d="M362.58 56.61c2.69-.76 5.65-1.32 8.21-.21 3.2 1.4 4.87 5 7.84 6.86a14.27 14.27 0 0 0-3.71 3.68 8.12 8.12 0 0 1-7.19 2.17 1.74 1.74 0 0 1-1.22-.69.57.57 0 0 1 0 .55 18.68 18.68 0 0 1-3.94-2.23c0 .17-.24.2-.41.14a6.8 6.8 0 0 1-4.26-5.47c-.4-2.92 2.22-4.1 4.68-4.8z"/><path fill="#3A6003" d="M363.3 61.62a17.3 17.3 0 0 0 2.16 0 24.77 24.77 0 0 1 12.32 2.11c-2-.47-4-.91-6-1.23-.77-.12-1.55-.24-2.33-.31-1.82-.14-3.65 0-5.48 0a17 17 0 0 1-2.86-.19c-.57-.09-3.36-.46-3.51-1.1-.24-1 2.34.18 2.66.3a10.67 10.67 0 0 0 3.04.42z"/><path fill="#406807" d="M362 65.83a23.43 23.43 0 0 0 3.61 2.17v-.46a9.25 9.25 0 0 0 2.24.7v-.43a7.37 7.37 0 0 0 2.68.22 3.54 3.54 0 0 0 2.34-1.22l-.39-.26a28.16 28.16 0 0 1 3.67-2.15 5.8 5.8 0 0 0-2.15-1.27 9.13 9.13 0 0 0-1.94-.38c-2.9-.3-5.87 0-8.74-.54a13.73 13.73 0 0 0-2-.3c-1 0-2.15.19-1.59 1.34a7.63 7.63 0 0 0 2.27 2.58z"/><path fill="#4F8403" d="M365.4 56.74c1.09-.35 2.33-.69 3.31-.11.23.14.44.32.66.48.89.6 2.13.74 2.75 1.62a5.25 5.25 0 0 1-2.86 1.12c-1 .14-2.08.12-3.11.25-1.03.13-6.05 1.8-6.26 0-.1-.87 1.63-1.76 2.26-2.09a19.77 19.77 0 0 1 3.25-1.27z"/><path fill="#6FA200" d="M354.79 60.54c.22.37 2.13.68 2.57.82 1 .32 2 .63 3 .86a6 6 0 00.53 1 19.14 19.14 0 001.18 2.51 5.62 5.62 0 003.26 2.34 9.56 9.56 0 01-4.48-5.75 13.61 13.61 0 001.92.24h1.16c.45.514.953.98 1.5 1.39a17.64 17.64 0 003.75 3.05 6 6 0 004.69.66 7.34 7.34 0 01-4.87-1.08 15.55 15.55 0 01-3.75-3.49 4.11 4.11 0 00-.54-.57h.82a38.67 38.67 0 016 .22c0 .23.21.51.23.66.005.233.035.464.09.69a5 5 0 00.29.5c.19.34.19.77.43 1.07.163.18.37.313.6.39a5 5 0 001.94.33l-1.4-.66a3.43 3.43 0 01-.83-.49 3 3 0 01-.81-2.23 1.81 1.81 0 000-.25c1.93.24 3.86.57 5.76 1a24.1 24.1 0 00-8-1.83h-.53c.16-.26.29-.65.45-.87a4.61 4.61 0 011.85-1.45c.3-.121.611-.209.93-.26h-.1a4 4 0 00-1 .07 4.06 4.06 0 00-2.2 1.71 4.94 4.94 0 01-.66.79h-2.39c.21-.29.28-.81.48-1.14a9.62 9.62 0 011.57-1.86c.4-.455.873-.84 1.4-1.14a4.25 4.25 0 00-1.85 1.19l-.83.77a4.62 4.62 0 00-.61.64 5 5 0 00-.36.64l-.4.82a.5.5 0 000 .13 24.62 24.62 0 01-4.65-.3l.12-.13c.38-.49.52-1.26.88-1.8a6.61 6.61 0 011.34-1.5 12.69 12.69 0 014-1.92l-2.53.85a7.38 7.38 0 00-1.05.41 6.35 6.35 0 00-2.16 2.12 7.58 7.58 0 00-1.19 1.86 11.37 11.37 0 01-2.09-.69 11.75 11.75 0 00-2-.88c-.38-.19-1.96-.27-1.46.56zM372.51 59.3a11.39 11.39 0 011.65.17 3 3 0 00-1.65-.17z"/><path fill="#4F8403" d="M346.7 56.54a4.24 4.24 0 0 1 1.42 1.34c.228.511.415 1.04.56 1.58.7 1.93 3.29 1.44 2.64-.59-.65-2.03-2.67-3.34-4.62-2.33z"/><path fill="#6FA200" d="M353.4 67.89a2.65 2.65 0 0 0-.27 1.64 5.87 5.87 0 0 1 .56-2c.08-.17.17-.34.24-.52.14-.41.15-.87.31-1.28 0-.13.12-.25.17-.38a1.89 1.89 0 0 0-.2-1.84c-.12.21 0 .73 0 1a6.34 6.34 0 0 1-.14 1.14 13.12 13.12 0 0 1-.67 2.24z"/><path fill="#4F8403" d="M353.07 52l.27.26a2.31 2.31 0 0 1 .69-1 .69.69 0 0 0 .18.35 4.69 4.69 0 0 1 2.88-2.35l.09.15a19.5 19.5 0 0 1 4.19-1.41 9.53 9.53 0 0 1-1.21 4l.31.1a15.38 15.38 0 0 1-1.55 3.12 9.31 9.31 0 0 1-2.6 3.19 9.28 9.28 0 0 1-3.32 1.13 3 3 0 0 1-1.08.09c-1.39-.25-1.1-2.8-.91-3.79a7.14 7.14 0 0 1 2.06-3.84z"/><path fill="#407200" d="M352.47 57.5a1.91 1.91 0 0 0-.38.7.74.74 0 0 0 .18.74 1 1 0 0 0 .81.15 4.31 4.31 0 0 0 2.45-1.09c.2-.2.38-.42.58-.61.2-.19.48-.4.71-.61a9.3 9.3 0 0 0 1.59-2.14 24.12 24.12 0 0 0 1.26-2.12c-1.4-.17-2.78.85-3.83 1.63a16.26 16.26 0 0 0-3.37 3.35z"/><path fill="#6FA200" d="M359.07 50.52c.53-.44 1.38-1.05 1.46-1.8-.42.1-.9.86-1.21 1.17-.48.48-1 .93-1.48 1.38l-1.08 1c.24-.74.61-1.41.9-2.11a4.59 4.59 0 0 0-1.36 2.52c-.45.41-.9.83-1.34 1.27l-.17.19a2.78 2.78 0 0 0 .11-.5c.1-.66.51-1.24.59-1.89a9.12 9.12 0 0 0-1.1 2.77h.06a22.13 22.13 0 0 0-1.88 2.34 21.51 21.51 0 0 0 0-2.66 8.61 8.61 0 0 0-.29 1.58 10.32 10.32 0 0 1-.08 1.54 22.51 22.51 0 0 0-1.94 3.54 1 1 0 0 0 .53-.53 38 38 0 0 1 2.19-3.32 4.58 4.58 0 0 0 1.42-.39 10 10 0 0 0 .92-.48 20.78 20.78 0 0 0 2.29-1.42c.13-.09.27-.23.24-.39.07.38-2.5 1.44-2.83 1.58-.33.14-1.07.33-1.62.54.67-.88 1.39-1.73 2.14-2.55a.32.32 0 0 0 0 .09 8.76 8.76 0 0 0 3-1.33 9.31 9.31 0 0 0 1.2-.89 6.7 6.7 0 0 0-1.8.93c-.36.22-1.53.55-2.07.93a38.07 38.07 0 0 1 3.2-3.11z"/><path fill="#406807" d="M349.18 58.08c.2.557.434 1.101.7 1.63a.44.44 0 0 0 .14.13.31.31 0 0 0 .36-.08.63.63 0 0 0 .16-.35 2 2 0 0 0-.22-1.35 3.52 3.52 0 0 0-.91-1.06c-.24-.18-2-.64-1.53-.37a8 8 0 0 1 1.3 1.45z"/><path fill="#4F8403" d="M355.8 60.19a3.81 3.81 0 0 0 1.23.64c.06.03.13.03.19 0a.23.23 0 0 0 0-.18 4 4 0 0 0-1.22-1.83 1.29 1.29 0 0 0-.5-.3 1.48 1.48 0 0 0-.47-.06c-.68 0-4 .09-3.43 1.59.27.78 1.34.12 1.79 0a2.85 2.85 0 0 1 2.41.14z"/><path fill="#406807" d="M353.65 59.46a3 3 0 0 1 2.44.92 2.6 2.6 0 0 0-2-1.51c-.54-.08-1.73 0-1.92.66-.19.66 1.09-.01 1.48-.07z"/><path fill="#6FA200" d="M330.55 55.28a12.17 12.17 0 01-1.55-.52 3.13 3.13 0 001.55.52zM349.72 61.44a9 9 0 00-2.29-3.44c-.35-.25-.91-1-1.29-1.2-.38-.2-1.14-1.07-1.83-1.22-.42-.22-.84-.44-1.27-.64a5.89 5.89 0 00-.31-1.1 17.55 17.55 0 00-.64-2.69 5.55 5.55 0 00-2.69-3 9.57 9.57 0 013.18 6.56 12.74 12.74 0 00-1.83-.63c-.37-.09-.75-.17-1.13-.23a10.42 10.42 0 00-1.18-1.68 18 18 0 00-3-3.8 6 6 0 00-4.44-1.6 7.34 7.34 0 014.57 2.13 15.41 15.41 0 013 4.19c.112.235.246.46.4.67l-.8-.13a38.75 38.75 0 01-5.82-1.47c0-.22-.1-.54-.09-.69a3.22 3.22 0 00.06-.69 5.22 5.22 0 00-.18-.56 6.84 6.84 0 00-.2-1.13 1.36 1.36 0 00-.51-.5 4.65 4.65 0 00-1.82-.73l1.23.94c.269.179.508.398.71.65a2.92 2.92 0 01.28 2.29 1 1 0 000 .25c-1.84-.63-3.66-1.36-5.44-2.15a23.81 23.81 0 007.42 3.45l.52.13c-.22.22-.43.58-.63.76a4.54 4.54 0 01-3.11 1.07h.09c.325.09.662.135 1 .13a4 4 0 002.5-1.21 7.12 7.12 0 01.81-.64c.77.18 1.56.34 2.34.49-.27.24-.44.73-.7 1a10.41 10.41 0 01-1.93 1.5 5.83 5.83 0 01-1.61.82 4.31 4.31 0 001.91-.68l1-.59a4.65 4.65 0 00.73-.49 4.29 4.29 0 00.48-.56c.19-.23.38-.47.56-.71a.37.37 0 00.07-.12 24.4 24.4 0 014.49 1.26.71.71 0 00-.14.1c-.48.4-.78 1.13-1.24 1.58a6.83 6.83 0 01-1.63 1.19 12.78 12.78 0 01-4.34 1l2.66-.31a7 7 0 001.11-.19 6.18 6.18 0 002.55-1.62c.35-.32 1.34-1.06 1.56-1.57.38.18.75.38 1.11.6.23.2.51.39.63.51.88.81 2 1.33 2.89 2.11a6.3 6.3 0 012 3.25.3.3 0 00.31-.26.84.84 0 00-.08-.4z"/><path fill="#4F8403" d="M348.37 62.27a4.1 4.1 0 0 0 .14 2 8.46 8.46 0 0 0 4.49 5.81c.82.289 1.655.536 2.5.74a12.15 12.15 0 0 1 4.19 2.18c.94-.58.93-1.93.74-3a23.51 23.51 0 0 0-1.81-5.68 9.08 9.08 0 0 0-2.55-3.51 4.16 4.16 0 0 0-4.07-.71c-1.22.52-3.28.74-3.63 2.17z"/><path fill="#406807" d="M354 63.54c.63 1.83 2.17 3.16 3.66 4.4a8.69 8.69 0 0 0 2 1.38 7.5 7.5 0 0 0-.66-3.17 14 14 0 0 0-1.6-3.35c-.5-.71-1.7-2.06-2.7-2-1 .06-.95 2.03-.7 2.74z"/><path fill="#6FA200" d="M359.53 72.66c-.25-1.74-1.48-3.15-2.43-4.64-.57-.9-1-1.87-1.57-2.81.519.338 1.01.716 1.47 1.13a8.44 8.44 0 0 1 2 2.49 8.73 8.73 0 0 0-3.25-4.19 6.44 6.44 0 0 0-.86-.63c-.1-.16-.21-.32-.32-.47a12 12 0 0 0-1-1.15h.05a3.61 3.61 0 0 1 1.83.56 7.12 7.12 0 0 1 1.82 1.64 2.09 2.09 0 0 0-.67-1.35 4.88 4.88 0 0 0-2.8-1.51 1.42 1.42 0 0 0-.58 0 .75.75 0 0 0-.2.1c-.83-.75-1.78-1.34-2.41-.93.52.5 1 1 1.55 1.45 0 .25.08.64.07.85a5.55 5.55 0 0 1-.13 1.15 14.11 14.11 0 0 1-.71 2.2 2.56 2.56 0 0 0-.27 1.64 5.87 5.87 0 0 1 .56-2 4.83 4.83 0 0 0 .23-.52c.15-.42.16-.87.32-1.28 0-.13.12-.25.17-.38a2.21 2.21 0 0 0 0-1.44c.63.58 1.25 1.17 1.83 1.79-.25.15-.4.76-.47 1a14.22 14.22 0 0 0-.69 2.88 2.29 2.29 0 0 0 .08 1.22c.047-.458.14-.91.28-1.35.14-.41.35-.78.49-1.18a6.2 6.2 0 0 0 .21-.7l.24-.94c.06-.193.103-.39.13-.59a14.61 14.61 0 0 1 1.52 2c0 .17.06.42 0 .57 0 .263-.03.524-.09.78a8.7 8.7 0 0 1-.49 1.52 1.87 1.87 0 0 0-.19 1.13 4.46 4.46 0 0 1 .39-1.35 2.83 2.83 0 0 0 .16-.36c.1-.28.11-.6.22-.88 0-.09.08-.17.12-.26.083-.237.11-.49.08-.74a43.67 43.67 0 0 0 3.31 5.55z"/><path fill="#F98030" d="M383 56a20.26 20.26 0 0 0-.72-3.11 9.26 9.26 0 0 0-1.87-2.89l-.29.21.41 1a8.38 8.38 0 0 0-.77-.78l-.28.23-.13-.2-.35.54-.17-.24-.19.21a8.81 8.81 0 0 0 .94 2.21s-.6-.52-1-.8a1.84 1.84 0 0 0-.35.34 25.14 25.14 0 0 0 2.1 2.6c.439.51.943.961 1.5 1.34 0 0 .24-.1.58-.28A2.51 2.51 0 0 0 383 56z"/><path fill="#CA9677" d="M380.25 50.12l-.13.1.41 1a13.47 13.47 0 011.69 2.78 11.85 11.85 0 00-1.97-3.88zM379.63 50.59l-.15.12a20.66 20.66 0 012 3.35 12.92 12.92 0 00-1.85-3.47zM379.12 50.83L379 51a27 27 0 012 2.9 16.85 16.85 0 00-1.88-3.07zM378.69 50.9a11 11 0 002.4 3.74s-1.62-.64-2.45-3.64l.05-.1z" style="mix-blend-mode:multiply"/><path fill="#F66C03" d="M382.45 56.37A2.51 2.51 0 0 0 383 56s-.09-.64-.27-1.46c.06.32.21 1.15 0 1.45-.21.3-1.83-.17-4.31-3.38a.63.63 0 0 0-.11.12 25.14 25.14 0 0 0 2.1 2.6c.439.51.943.961 1.5 1.34 0 0 .2-.12.54-.3z"/><path fill="#C76145" d="M378.87 51a15.74 15.74 0 0 0 2.5 3.71c1.2 1.08 1.48.89 1.33 0a10.87 10.87 0 0 0-1.2-3.22 18.6 18.6 0 0 1 .93 3.11 11.08 11.08 0 0 0-2-3.21 16 16 0 0 1 1.67 3.68 6.27 6.27 0 0 1-1-1.63c.12.395.27.78.45 1.15a14.42 14.42 0 0 1-2.68-3.59z" opacity=".7" style="mix-blend-mode:screen"/><path fill="#E26107" d="M389 53.6a5.67 5.67 0 0 1 0 1.47s.12-.42-.62-1.07c-.74-.65-1.51.26-1.69.5 0 0 1-.4 1.42 0a1.54 1.54 0 0 1 .41 1.7 2.36 2.36 0 0 0-.81-1.3c-.67-.53-1.48.29-1.48.29s1.12-.09 1.41.24a1.16 1.16 0 0 1-.27 1.92s.18-1.36-.91-1.63c0 0 .89 1.21.17 1.87 0 0-.1-1.72-1-2.17 0 0 .61 1.37 0 1.73-.61.36-1.11-.35-1.11-.35s.64-.23.25-1.14c0 .09-.23 1.25-1.13.86-.9-.39.18 2.06 2 2.51a4 4 0 0 0 4.05-1.47c.51-.84.62-3.19-.69-3.96z"/><path fill="#CA9677" d="M387.35 57.23a.18.18 0 010 .05V57.57a.32.32 0 010 .09v.27a.36.36 0 000 .09v.19l.1-.09a.18.18 0 000-.07l.06-.08v-.09a.42.42 0 000-.1v-.1-.11a.28.28 0 010-.09.28.28 0 000-.09.44.44 0 000-.13.12.12 0 00-.16-.03zM386.65 57.49a1.66 1.66 0 00-.15.18l-.07.09-.08.09a.39.39 0 01-.08.1l-.09.11-.08.1-.09.1-.08.09-.07.08a.38.38 0 01-.13.08h-.06.06a.31.31 0 00.18 0l.09-.07a.39.39 0 00.1-.08.47.47 0 00.1-.1l.1-.1.08-.11a1 1 0 01.08-.11l.06-.11v-.11a.82.82 0 00.06-.16l.07-.07zM388.45 56.15a2.41 2.41 0 000 .27V56.84a.86.86 0 010 .16.76.76 0 010 .15v.15a.61.61 0 010 .14.53.53 0 010 .13v.26-.06a.56.56 0 000-.08.5.5 0 000-.13.4.4 0 000-.15.42.42 0 000-.16.86.86 0 000-.16.78.78 0 000-.16V56.63a.93.93 0 010-.13 2.1 2.1 0 000-.35zM389 54.89v1.7c.01.071.026.142.05.21v.19l.08.28v.1-.11-.29a1.11 1.11 0 010-.19v-.21a1.7 1.7 0 000-.22v-.47l-.06-.22a1.6 1.6 0 000-.21 1.21 1.21 0 000-.18l-.07-.38z"/><path fill="#F66C03" d="M388 62.89c3.13 1.11 5.39-2.16 5.39-2.16a4.18 4.18 0 0 0 2-3.13 8.69 8.69 0 0 0-.47-3.92c-.11 0-.1-.23-.1-.23a8.11 8.11 0 0 0-2.75-4.39c-.51-.44-.84-.31-1.57-.2l-2 2.94s.39.51.34.56a1.4 1.4 0 0 0-.17 1v.14c.137.886.389 1.75.75 2.57a2.69 2.69 0 0 0-.39.88 5 5 0 0 0-1.61 1.16 2.08 2.08 0 0 0-1.85.31c-.45-1.16-2.91-2.79-2.91-2.79s-1.06-.53-.77 1.37a7.14 7.14 0 0 0 2.16 3.5 5.75 5.75 0 0 0 3.95 2.39z"/><path fill="#F5E1CD" d="M388.72 53.49a5.72 5.72 0 003.39-4.42c-1.91-1.83-3.33 1.16-3.75 2.1a2.16 2.16 0 000 1.87l.36.45zM394.14 60.22a7.5 7.5 0 01-2.47-1.78 3.78 3.78 0 00-2.55-1.51 4.82 4.82 0 012.26 1.81 8.82 8.82 0 001.83 2.26s.13-.17.23-.33a1.88 1.88 0 00.7-.45zM395.29 54.68a2.9 2.9 0 01-1.51.39 7.16 7.16 0 00-4 .77s1.48-1.42 2.48-1.48a3.91 3.91 0 002.67-.91c.168.394.289.807.36 1.23zM387.51 58.09a5.32 5.32 0 01.8 2.1c0 .86-.14 1.61 0 2 .096.306.216.604.36.89a2 2 0 01-.58-.16 4.64 4.64 0 01-.6-.12s-.33-1.07-.18-1.39a3.92 3.92 0 00.46-1.57 6.44 6.44 0 00-.33-1.76l.07.01zM385.66 58.4c.082.473.023.96-.17 1.4a2 2 0 01-1.27 1l-.17-.28-.14-.13a1.54 1.54 0 001.23-.42 2.61 2.61 0 00.52-1.57z"/><path fill="#F98030" d="M393 59.08c1.09.64 1.49.05 1.87-.94a4 4 0 0 0 0-2.64c-.18-.19-1.11 0-1.75-.07-.64-.07-2.23.32-2.31 1-.08.68 1.66 2.34 2.19 2.65z"/><path fill="#F3D9B8" d="M394.54 56.38c0 .56.08 1.85-.6 2.13-.68.28-.3-.85-.41-1.16-.16-.49-.8-.7 0-1 .28-.17.96-.5 1.01.03z"/><path fill="#F98030" d="M388.83 62.28c.27.54 1.9.29 2.48 0a1.37 1.37 0 00.74-2 7.63 7.63 0 00-1.92-2.28c-.39-.1-1.25.88-1.29 1.49a9.59 9.59 0 00-.01 2.79zM385.64 61.62c.76.55 1.24.45 1.31.22.07-.23 0-.73.22-1a1.68 1.68 0 00-.09-1.56c-.35-.39-1.22.73-1.44.95-.22.22-.88.77 0 1.39z"/><path fill="#F3D9B8" d="M390.59 59.55c.449.317.78.774.94 1.3.11.64-.58.84-1 1-.42.16-1.56.25-1.39-.71.06-.36.3-.67.38-1 0-.2 0-.43.19-.58.19-.15.56-.23.88-.01zM386.84 60.46v.06-.06zM385.93 60.46c.39-.35 1.1-.49.84.17v-.11c-.16.41-.12 1-.69.72s-.5-.46-.15-.78z"/><path fill="#F98030" d="M383.06 57.26c.09.23.06.52.15.77.087.222.205.43.35.62.15.22.39.7.71.73.32.03.2-.09.36-.27.16-.18.29-.33.39-.33.26 0 .25.17.14.37a2.49 2.49 0 01-.49.63c-.42.37-.83.39-1.17-.11-.54-.8-1.13-1.37-.78-2.37.11-.3.18-.39.34-.04zM390.36 53.19a14.07 14.07 0 001.44-1.65c.16-.23.24-.8.47-.94.53-.31 1.22 1.3 1.45 1.68.33.55.61 1.24-.14 1.48-.45.14-.94.1-1.4.24a3.44 3.44 0 01-1 .34c-.53.01-1.18-.74-.82-1.15z"/><path fill="#F3D9B8" d="M393.35 52.51a.69.69 0 0 1 .1.48.46.46 0 0 1-.36.3 2.52 2.52 0 0 1-.48 0 2.78 2.78 0 0 0-1.13.29.31.31 0 0 1-.26.06.25.25 0 0 1-.12-.16.64.64 0 0 1 .13-.51c.12-.133.25-.257.39-.37a3.25 3.25 0 0 0 .5-.61c.14-.21.4-.68.72-.47.32.21.39.76.51.99z"/><path fill="#407200" d="M355.49 85.13c.4 2.77.57 5.77-.87 8.17-1.81 3-5.61 4.17-7.83 6.87a14.12 14.12 0 0 0-3.16-4.17 8.12 8.12 0 0 1-1.21-7.41c.11-.477.42-.885.85-1.12a.57.57 0 0 1-.55-.09 18.89 18.89 0 0 1 2.73-3.62c-.17 0-.17-.26-.09-.42a6.78 6.78 0 0 1 6-3.5c2.93.01 3.76 2.76 4.13 5.29z"/><path fill="#3A6003" d="M350.43 85.19a15.48 15.48 0 0 0-.28 2.14 24.78 24.78 0 0 1-3.72 11.94c.74-1.93 1.43-3.82 2-5.8.22-.75.44-1.5.6-2.27.39-1.79.46-3.62.7-5.43.109-.948.3-1.885.57-2.8.17-.55.91-3.27 1.56-3.34 1-.11-.49 2.29-.64 2.6a10.74 10.74 0 0 0-.79 2.96z"/><path fill="#406807" d="M346.42 83.39a23.83 23.83 0 0 0-2.59 3.25h.45a9.86 9.86 0 0 0-1 2.14h.43a7.48 7.48 0 0 0-.57 2.63 3.56 3.56 0 0 0 .93 2.59l.3-.35a27.54 27.54 0 0 1 1.63 3.87 5.64 5.64 0 0 0 1.5-1.89 8.68 8.68 0 0 0 .63-1.86c.68-2.85.79-5.82 1.68-8.6.24-.651.431-1.32.57-2 .16-1 .09-2.16-1.12-1.76a7.75 7.75 0 0 0-2.84 1.98z"/><path fill="#4F8403" d="M355 87.91c.21 1.12.38 2.4-.32 3.3-.17.21-.38.39-.56.59-.72.8-1 2-2 2.51a5.22 5.22 0 0 1-.74-3c0-1 .16-2.07.16-3.11s-1-6.24.81-6.21c.88 0 1.53 1.85 1.78 2.51.39 1.109.682 2.25.87 3.41z"/><path fill="#6FA200" d="M352.61 76.89c-.4.17-1 2-1.15 2.45-.44.93-.88 1.88-1.24 2.86a5.39 5.39 0 0 0-1.07.39c-.9.213-1.782.494-2.64.84a5.56 5.56 0 0 0-2.75 2.92 9.57 9.57 0 0 1 6.29-3.68 13.15 13.15 0 0 0-.48 1.87c-.07.38-.11.76-.15 1.15a11.08 11.08 0 0 0-1.58 1.31 18.31 18.31 0 0 0-3.55 3.31 6 6 0 0 0-1.29 4.56 7.35 7.35 0 0 1 1.76-4.73 15.57 15.57 0 0 1 4-3.26 5 5 0 0 0 .63-.46c0 .27 0 .54-.07.81a38.35 38.35 0 0 1-1 5.92c-.22 0-.52.14-.68.14a3.28 3.28 0 0 0-.7 0 5 5 0 0 0-.53.23c-.36.14-.79.09-1.12.29a1.43 1.43 0 0 0-.46.54 4.79 4.79 0 0 0-.58 1.88l.84-1.31c.16-.277.358-.53.59-.75a3 3 0 0 1 2.26-.46c.083.008.167.008.25 0-.48 1.89-1.07 3.75-1.72 5.59a24 24 0 0 0 2.83-7.7l.09-.52c.23.2.6.38.8.57a4.57 4.57 0 0 1 1.19 2c.096.325.143.662.14 1a.44.44 0 0 0 0-.1 3.27 3.27 0 0 0-1.34-3.38 4.94 4.94 0 0 1-.7-.75c.11-.79.2-1.58.3-2.37.26.25.76.39 1.06.63a9.67 9.67 0 0 1 1.64 1.8 5.72 5.72 0 0 1 1 1.54 4.31 4.31 0 0 0-.94-2l-.66-.93a4.54 4.54 0 0 0-.55-.68 4.31 4.31 0 0 0-.59-.44l-.74-.48-.12-.06a25.49 25.49 0 0 1 .9-4.57l.12.14c.43.44 1.18.69 1.67 1.11a6.4 6.4 0 0 1 1.31 1.53 12.49 12.49 0 0 1 1.37 4.24l-.51-2.62a6.68 6.68 0 0 0-.27-1.09 6.3 6.3 0 0 0-1.81-2.42 7.58 7.58 0 0 0-1.66-1.43 10.24 10.24 0 0 1 1-2 13.2 13.2 0 0 0 1.14-1.91c.07-.35.36-1.9-.53-1.52z"/><path fill="#6FA200" d="M351.52 94.63a11.43 11.43 0 0 1-.39 1.61 3 3 0 0 0 .39-1.61z"/><path fill="#F98030" d="M330.68 92.15A21 21 0 0 0 330 89a9.31 9.31 0 0 0-1.87-2.87l-.29.21.41 1a7.46 7.46 0 0 0-.77-.77l-.28.22-.13-.2-.35.48-.17-.23-.19.21a8.65 8.65 0 0 0 .94 2.2s-.6-.51-1-.8a2 2 0 0 0-.34.34 24.36 24.36 0 0 0 2.09 2.6c.44.513.948.964 1.51 1.34a5.15 5.15 0 0 0 .57-.28 2.7 2.7 0 0 0 .55-.3z"/><path fill="#CA9677" d="M327.94 86.28l-.13.1.41 1a14.15 14.15 0 011.7 2.75 11.75 11.75 0 00-1.98-3.85zM327.32 86.75l-.15.12a21.75 21.75 0 012 3.35 13.12 13.12 0 00-1.85-3.47zM326.81 87l-.12.16a27 27 0 012 2.9 17.22 17.22 0 00-1.88-3.06zM326.38 87.06a11 11 0 002.4 3.74s-1.61-.63-2.45-3.67l.05-.07z" style="mix-blend-mode:multiply"/><path fill="#F66C03" d="M330.14 92.53a2.7 2.7 0 0 0 .54-.38s-.09-.64-.27-1.47c.06.32.21 1.16 0 1.46-.21.3-1.83-.18-4.31-3.39l-.1.12a24.36 24.36 0 0 0 2.09 2.6c.44.513.948.964 1.51 1.34a5.15 5.15 0 0 0 .54-.28z"/><path fill="#C76145" d="M326.56 87.16a16.06 16.06 0 0 0 2.5 3.72c1.2 1.07 1.48.88 1.33 0a11 11 0 0 0-1.2-3.22 18.93 18.93 0 0 1 .93 3.11 11.22 11.22 0 0 0-2-3.21 16 16 0 0 1 1.67 3.68 6.08 6.08 0 0 1-1-1.63c.12.395.27.78.45 1.15a14.42 14.42 0 0 1-2.68-3.6z" opacity=".7" style="mix-blend-mode:screen"/><path fill="#E26107" d="M336.73 89.77a5.59 5.59 0 0 1-.06 1.46s.12-.42-.61-1.07c-.73-.65-1.51.27-1.7.51 0 0 1-.41 1.43 0a1.53 1.53 0 0 1 .4 1.7 2.36 2.36 0 0 0-.81-1.29c-.67-.53-1.48.28-1.48.28s1.12-.09 1.41.25a1.16 1.16 0 0 1-.31 1.93s.19-1.36-.9-1.63c0 0 .88 1.21.16 1.86 0 0-.1-1.72-1-2.17 0 0 .61 1.37 0 1.74-.61.37-1.11-.34-1.11-.34s.64-.23.25-1.14c0 .09-.23 1.25-1.13.86-.9-.39.18 2.06 2 2.51a4 4 0 0 0 4.05-1.48c.57-.86.68-3.21-.59-3.98z"/><path fill="#CA9677" d="M335 93.4v.28a.29.29 0 010 .09.42.42 0 010 .1v.46l.09-.09.05-.07.06-.08a1 1 0 000-.1.3.3 0 000-.1v-.1-.1-.19a.74.74 0 010-.12l-.2.02zM334.34 93.65l-.15.18-.07.09a.86.86 0 00-.07.1l-.09.1-.08.1-.09.1-.09.1-.08.09-.07.08a.31.31 0 01-.13.09h-.06a.14.14 0 00.06 0 .33.33 0 00.18 0l.1-.07.09-.08.1-.09a.52.52 0 00.1-.11.44.44 0 00.08-.11.44.44 0 00.08-.11l.06-.11a.93.93 0 000-.1 1.16 1.16 0 00.06-.16l.07-.09zM336.14 92.31a2.41 2.41 0 000 .27V93.99l.05-.06v-.13a.84.84 0 010-.12.77.77 0 000-.15.88.88 0 000-.16v-.17a.88.88 0 000-.16.9.9 0 000-.16v-.26a1.92 1.92 0 00-.05-.31zM336.66 91.06v2.09c0 .05.06.21.08.28v.1-.1-.29-.63l.26-.23v-.46l-.06-.2a1.05 1.05 0 000-.19 3.77 3.77 0 00-.28-.37z"/><path fill="#F66C03" d="M335.73 99.05c3.13 1.12 5.39-2.15 5.39-2.15a4.24 4.24 0 0 0 2.05-3.14 8.72 8.72 0 0 0-.48-3.91c-.11 0-.1-.24-.1-.24a8.09 8.09 0 0 0-2.74-4.38c-.52-.45-.85-.32-1.58-.21l-2 2.94s.39.52.35.57a1.28 1.28 0 0 0-.18 1v.14a10.6 10.6 0 0 0 .75 2.57 2.8 2.8 0 0 0-.39.89 5 5 0 0 0-1.61 1.15 2.12 2.12 0 0 0-1.85.31c-.45-1.15-2.91-2.79-2.91-2.79s-1.15-.5-.85 1.36a7.13 7.13 0 0 0 2.15 3.51 5.72 5.72 0 0 0 4 2.38z"/><path fill="#F5E1CD" d="M336.41 89.66a5.74 5.74 0 003.4-4.41c-1.92-1.84-3.34 1.15-3.76 2.09a2.18 2.18 0 000 1.88l.36.44zM341.83 96.38a7.4 7.4 0 01-2.46-1.78 3.8 3.8 0 00-2.56-1.5 4.77 4.77 0 012.26 1.8 8.82 8.82 0 001.83 2.28l.24-.33a1.89 1.89 0 00.69-.47zM343 90.84a2.84 2.84 0 01-1.5.4 7.24 7.24 0 00-4 .76s1.48-1.42 2.48-1.47a3.92 3.92 0 002.67-.92c.165.395.282.808.35 1.23zM335.2 94.25a5.32 5.32 0 01.8 2.1c0 .86-.14 1.61 0 2 .094.307.214.604.36.89a2 2 0 01-.58-.16s-.31 0-.6-.11c0 0-.33-1.08-.18-1.4a3.92 3.92 0 00.41-1.57 6.53 6.53 0 00-.33-1.76l.12.01zM333.35 94.56a2.36 2.36 0 01-.17 1.4 1.94 1.94 0 01-1.26 1l-.18-.27-.14-.13a1.61 1.61 0 001.24-.42 2.69 2.69 0 00.51-1.58z"/><path fill="#F98030" d="M340.69 95.24c1.09.64 1.49.05 1.87-.94a4 4 0 0 0 0-2.64c-.18-.18-1.11 0-1.74-.07-.63-.07-2.24.32-2.31 1-.07.68 1.66 2.35 2.18 2.65z"/><path fill="#F3D9B8" d="M342.23 92.55c0 .55.08 1.84-.6 2.12-.68.28-.3-.85-.41-1.16-.16-.48-.8-.7 0-1 .28-.17.97-.51 1.01.04z"/><path fill="#F98030" d="M336.52 98.44c.27.54 1.9.3 2.49 0a1.37 1.37 0 00.73-2 7.63 7.63 0 00-1.92-2.33c-.39-.09-1.25.89-1.28 1.5a9.21 9.21 0 00-.02 2.83zM333.34 97.78c.76.55 1.23.46 1.3.22a3.87 3.87 0 01.22-1 1.68 1.68 0 00-.09-1.56c-.35-.38-1.22.73-1.44 1-.22.27-.88.7.01 1.34z"/><path fill="#F3D9B8" d="M338.28 95.71c.446.318.778.77.95 1.29.1.63-.59.83-1.06 1-.47.17-1.56.25-1.39-.71.06-.35.3-.67.38-1 .08-.33 0-.44.19-.59a.72.72 0 01.93.01zM334.53 96.62v.07a.14.14 0 010-.07z"/><path fill="#F3D9B8" d="M333.63 96.63c.39-.35 1.09-.5.83.16v-.1c-.17.41-.13 1-.7.71-.57-.29-.49-.4-.13-.77z"/><path fill="#F98030" d="M330.75 93.42c.1.23.06.53.15.77.09.226.211.438.36.63.14.22.38.7.7.72.32.02.2-.09.36-.27.16-.18.29-.33.39-.33.26 0 .25.17.14.37a2.79 2.79 0 01-.49.64.7.7 0 01-1.17-.11c-.54-.8-1.13-1.38-.77-2.38.1-.3.18-.39.33-.04zM338.06 89.35a15.84 15.84 0 001.43-1.64c.16-.24.24-.81.47-.95.53-.31 1.22 1.3 1.45 1.68.34.56.61 1.24-.14 1.48-.44.15-.94.1-1.4.25a3.65 3.65 0 01-1 .34c-.52 0-1.14-.75-.81-1.16z"/><path fill="#F3D9B8" d="M341 88.68a.62.62 0 0 1 .1.47.48.48 0 0 1-.35.31 2.7 2.7 0 0 1-.49 0c-.394.01-.78.11-1.13.29a.31.31 0 0 1-.26 0 .23.23 0 0 1-.12-.15.66.66 0 0 1 .13-.51 2.79 2.79 0 0 1 .39-.38c.19-.179.359-.38.5-.6.14-.22.41-.69.72-.48.31.21.44.82.51 1.05z"/><path fill="#F98030" d="M344.27 68a20.84 20.84 0 0 0 2.46-2 9.35 9.35 0 0 0 1.73-3l-.32-.17-.74.84c.136-.325.25-.66.34-1l-.32-.15.12-.2-.59-.1.14-.26-.28-.08a8.81 8.81 0 0 0-1.55 1.83s.19-.77.29-1.22a1.92 1.92 0 0 0-.46-.15 24.5 24.5 0 0 0-1.39 3 6.83 6.83 0 0 0-.52 1.94s.19.16.5.39c.185.13.383.24.59.33z"/><path fill="#CA9677" d="M348.29 62.89l-.15-.08-.74.84a13.54 13.54 0 01-1.71 2.74 11.78 11.78 0 002.6-3.5zM347.59 62.54l-.17-.08a20.21 20.21 0 01-2.12 3.26 12.56 12.56 0 002.29-3.18zM347.15 62.19h-.2a27.22 27.22 0 01-1.68 3.11 17 17 0 001.88-3.11zM346.89 61.84a10.91 10.91 0 00-2.27 3.82s-.15-1.73 2.19-3.84l.08.02z" style="mix-blend-mode:multiply"/><path fill="#F66C03" d="M343.68 67.65c.186.123.383.227.59.31 0 0 .53-.37 1.19-.9-.26.2-.94.7-1.32.63-.38-.07-.66-1.72 1.1-5.38h-.15a24.5 24.5 0 0 0-1.39 3 6.83 6.83 0 0 0-.52 1.94s.19.17.5.4z"/><path fill="#C76145" d="M346.88 62a15.83 15.83 0 0 0-2.2 3.9c-.42 1.56-.13 1.72.61 1.18a10.92 10.92 0 0 0 2.35-2.51 19.18 19.18 0 0 1-2.36 2.22 11.4 11.4 0 0 0 2-3.22 16.14 16.14 0 0 1-2.55 3.15 6.14 6.14 0 0 1 1-1.65 8.52 8.52 0 0 0-.83.92 15 15 0 0 1 1.98-3.99z" opacity=".7" style="mix-blend-mode:screen"/><path fill="#E26107" d="M349.1 72.31a5.83 5.83 0 0 1-1.33.6s.42-.09.68-1c.26-.91-.91-1.23-1.21-1.29 0 0 .81.71.63 1.28a1.55 1.55 0 0 1-1.35 1.1 2.34 2.34 0 0 0 .8-1.3c.17-.84-.92-1.2-.92-1.2s.59 1 .41 1.37a1.15 1.15 0 0 1-1.83.62s1.29-.49 1.02-1.55c0 0-.69 1.34-1.6 1 0 0 1.5-.86 1.49-1.87 0 0-1 1.16-1.56.75-.56-.41-.18-1.15-.18-1.15s.49.47 1.12-.29c-.06.07-1.21.35-1.27-.62-.06-.97-1.76 1.08-1.36 2.9a4 4 0 0 0 3.14 3c1.05.08 3.22-.87 3.32-2.35z"/><path fill="#CA9677" d="M345.1 72.42H344 344.31a.34.34 0 00.1 0H344.62a.29.29 0 00.1 0H344.89l.1-.08.11.08zM344.56 71.9l-.23-.05h-.96a.3.3 0 01-.14-.08v.07a.24.24 0 00.12.13l.1.06a.43.43 0 00.12 0h.94l.05-.13zM346.56 72.91a2.1 2.1 0 00-.23.14l-.11.07-.12.08a.57.57 0 01-.13.08l-.13.08-.14.08-.13.07h-.46.56l.15-.06.14-.08.14-.09.12-.1.12-.09.09-.09a1.55 1.55 0 00.13-.09zM347.92 72.82l-.33.21-.16.11-.18.12-.18.14-.19.14-.18.14-.18.14-.17.14-.14.12-.22.19-.08.08.1-.06.25-.14.16-.1.18-.12.18-.13.19-.15.19-.14.17-.15.17-.14.14-.12z"/><path fill="#F66C03" d="M340.35 75.56c.41 3.3 4.34 3.86 4.34 3.86a4.2 4.2 0 0 0 3.72.43 8.79 8.79 0 0 0 3.29-2.18c-.08-.08.17-.19.17-.19a8.2 8.2 0 0 0 2.69-4.42c.17-.66-.1-.9-.52-1.5l-3.53-.48s-.28.58-.35.57a1.29 1.29 0 0 0-.95.27l-.12.08a10.55 10.55 0 0 0-2 1.82 2.92 2.92 0 0 0-1 0 5 5 0 0 0-1.75-.92 2.14 2.14 0 0 0-1.11-1.52c.83-.91 1.2-3.84 1.2-3.84s-.07-1.26-1.6-.16a7.12 7.12 0 0 0-2.17 3.49 5.74 5.74 0 0 0-.31 4.69z"/><path fill="#F5E1CD" d="M349.06 72a5.74 5.74 0 005.47 1.06c.78-2.54-2.53-2.47-3.56-2.42a2.18 2.18 0 00-1.68.82l-.23.54zM345.47 79.82a7.52 7.52 0 01.49-3 3.84 3.84 0 00.2-3 4.77 4.77 0 01-.6 2.83 8.92 8.92 0 00-1.22 2.66l.4.06c.201.21.452.364.73.45zM350.94 78.38a2.87 2.87 0 01-1-1.18 7.22 7.22 0 00-2.49-3.26s1.93.68 2.43 1.56a3.94 3.94 0 002 2 5.75 5.75 0 01-.94.88zM344.41 72.94a5.46 5.46 0 01-1.52 1.66c-.76.4-1.51.59-1.78.83a5.54 5.54 0 00-.64.73 2.22 2.22 0 01-.12-.6s-.1-.3-.16-.58c0 0 .81-.78 1.16-.79a3.77 3.77 0 001.65-.29 6.46 6.46 0 001.43-1.08l-.02.12zM343.3 71.42a2.35 2.35 0 01-1.3.48 2 2 0 01-1.41-.71l.17-.28.05-.18c.164.426.502.761.93.92a2.63 2.63 0 001.56-.23z"/><path fill="#F98030" d="M346 78.29c-.09 1.27.62 1.36 1.68 1.26a4 4 0 0 0 2.32-1.19c.09-.25-.5-1-.72-1.59-.22-.59-1.28-1.87-1.93-1.61-.65.26-1.35 2.53-1.35 3.13z"/><path fill="#F3D9B8" d="M349.08 78.47c-.51.23-1.61.89-2.17.41-.56-.48.63-.65.86-.88.23-.23.26-1 .92-.49.25.21.84.68.39.96z"/><path fill="#F98030" d="M341.25 76c-.36.48.59 1.83 1.12 2.22a1.38 1.38 0 002.1-.23 7.63 7.63 0 001.23-2.76c-.09-.4-1.35-.72-1.91-.48a9.12 9.12 0 00-2.54 1.25zM340.42 72.85c-.16.93.14 1.31.38 1.27.24-.04.68-.28 1-.23a1.71 1.71 0 001.36-.79c.18-.48-1.2-.76-1.51-.86-.31-.1-1.06-.46-1.23.61z"/><path fill="#F3D9B8" d="M344.48 76.35a2.56 2.56 0 01-.74 1.43c-.52.37-1-.15-1.33-.51-.33-.36-.92-1.29 0-1.57.35-.1.74 0 1.09-.12.35-.12.4-.17.61-.09.21.08.42.51.37.86zM341.58 72.6c.49.19.93.75.22.82h.12c-.44 0-.93.32-1-.3-.07-.62.22-.7.66-.52z"/><path fill="#F98030" d="M343.16 68.59c-.16.19-.44.29-.62.48a2.73 2.73 0 00-.4.6c-.13.23-.46.66-.34 1 .12.34.18.14.41.2.23.06.42.12.47.2.12.23 0 .3-.27.3a3.15 3.15 0 01-.79-.16c-.51-.21-.72-.57-.42-1.09.47-.85.72-1.63 1.77-1.76.32-.09.43-.06.19.23zM350.07 73.3a13.92 13.92 0 002.11.55c.28 0 .83-.15 1 0 .52.34-.61 1.67-.85 2.05-.34.54-.83 1.1-1.38.54-.33-.34-.51-.8-.85-1.15-.34-.35-.6-.44-.76-.75-.18-.46.21-1.35.73-1.24z"/><path fill="#F3D9B8" d="M352 75.67a.72.72 0 0 1-.38.31.49.49 0 0 1-.43-.19 2 2 0 0 1-.26-.42 2.64 2.64 0 0 0-.76-.87c-.08-.06-.16-.12-.17-.21a.26.26 0 0 1 .09-.18.61.61 0 0 1 .51-.11c.176.04.347.1.51.18.249.09.507.15.77.18.25 0 .79 0 .74.43-.05.43-.46.68-.62.88z"/><path fill="#F98030" d="M362.67 33.83a22.05 22.05 0 0 0 2.46-2 9.35 9.35 0 0 0 1.73-2.95l-.31-.17-.75.83a9.22 9.22 0 0 0 .35-1l-.33-.15.12-.2-.58-.1.13-.26-.27-.08a9 9 0 0 0-1.56 1.83s.19-.77.29-1.22a1.75 1.75 0 0 0-.46-.15 24.8 24.8 0 0 0-1.39 3 7.47 7.47 0 0 0-.52 2s.19.16.51.39c.185.096.38.173.58.23z"/><path fill="#CA9677" d="M366.69 28.76l-.14-.08-.75.83a13.78 13.78 0 01-1.7 2.75 11.83 11.83 0 002.59-3.5zM366 28.41l-.18-.08a20.65 20.65 0 01-2.11 3.26 13.07 13.07 0 002.29-3.18zM365.55 28.06h-.19a26.28 26.28 0 01-1.69 3.11 17 17 0 001.88-3.11zM365.3 27.71a10.75 10.75 0 00-2.3 3.82s-.16-1.73 2.19-3.84l.11.02z" style="mix-blend-mode:multiply"/><path fill="#F66C03" d="M362.09 33.52c.182.124.376.228.58.31 0 0 .53-.37 1.19-.9-.26.2-.94.7-1.31.63-.37-.07-.67-1.72 1.1-5.38h-.16a24.8 24.8 0 0 0-1.39 3 7.47 7.47 0 0 0-.52 2s.19.11.51.34z"/><path fill="#C76145" d="M365.28 27.91a16.17 16.17 0 0 0-2.2 3.9c-.42 1.55-.13 1.72.62 1.18a10.76 10.76 0 0 0 2.3-2.51 19.18 19.18 0 0 1-2.36 2.22 11.15 11.15 0 0 0 2-3.22 16.39 16.39 0 0 1-2.54 3.15 5.86 5.86 0 0 1 1-1.65 8.52 8.52 0 0 0-.83.92 14.76 14.76 0 0 1 2.01-3.99z" opacity=".7" style="mix-blend-mode:screen"/><path fill="#E26107" d="M367.51 38.17a5.54 5.54 0 0 1-1.34.6s.43-.08.68-1c.25-.92-.91-1.23-1.21-1.29 0 0 .82.71.63 1.28a1.54 1.54 0 0 1-1.34 1.12c.4-.334.678-.791.79-1.3.18-.84-.91-1.2-.91-1.2s.58 1 .41 1.37a1.16 1.16 0 0 1-1.84.62s1.3-.44 1.06-1.54c0 0-.69 1.34-1.6 1 0 0 1.49-.86 1.49-1.87 0 0-1 1.16-1.57.75-.57-.41-.18-1.15-.18-1.15s.49.47 1.13-.29c-.06.07-1.22.35-1.27-.63-.05-.98-1.76 1.09-1.36 2.91a4 4 0 0 0 3.13 3c1.03.06 3.18-.89 3.3-2.38z"/><path fill="#CA9677" d="M363.51 38.29h-1.08.94l.11-.08zM363 37.77l-.23-.05h-.96a.26.26 0 01-.13-.08.12.12 0 000 .07.29.29 0 00.12.13l.1.06.12.05H362.97l.03-.18zM365 38.78l-.23.14-.11.07-.12.08-.26.16-.13.08-.14.06-.13.06h-.32.55l.15-.06.15-.08.13-.09.13-.1.11-.09.09-.09c.046-.044.09-.09.13-.14zM366.32 38.69l-.32.21-.16.11-.17.12-.19.14-.18.14-.19.14-.18.14-.16.14-.15.12-.21.19-.08.07.09-.05.25-.14.16-.1.17-.12.19-.14.19-.14.18-.14.18-.15.16-.14a.86.86 0 00.1-.09c.22-.2.32-.31.32-.31z"/><path fill="#F66C03" d="M358.76 41.43c.4 3.3 4.34 3.86 4.34 3.86a4.22 4.22 0 0 0 3.71.43 8.82 8.82 0 0 0 3.29-2.18c-.07-.08.17-.19.17-.19a8.14 8.14 0 0 0 2.73-4.42c.17-.66-.1-.9-.52-1.5l-3.57-.43s-.28.58-.34.57c-.06-.01-.43 0-.95.27l-.12.08a9.89 9.89 0 0 0-2 1.82 3 3 0 0 0-1 0 4.93 4.93 0 0 0-1.75-.92 2.11 2.11 0 0 0-1.1-1.52c.83-.91 1.19-3.84 1.19-3.84s-.06-1.26-1.6-.16a7.12 7.12 0 0 0-2.17 3.49 5.76 5.76 0 0 0-.31 4.64z"/><path fill="#F5E1CD" d="M367.46 37.84a5.72 5.72 0 005.54 1.09c.78-2.54-2.52-2.47-3.55-2.42a2.15 2.15 0 00-1.68.82l-.31.51zM363.87 45.69a7.58 7.58 0 01.49-3 3.77 3.77 0 00.2-3 4.77 4.77 0 01-.6 2.83 8.92 8.92 0 00-1.22 2.66l.4.06c.203.207.454.361.73.45zM369.34 44.25a2.88 2.88 0 01-1-1.18 7.22 7.22 0 00-2.49-3.26s1.93.68 2.43 1.56a3.92 3.92 0 002 2 5.75 5.75 0 01-.94.88zM362.81 38.81a5.46 5.46 0 01-1.52 1.66c-.76.4-1.5.59-1.78.83a5.54 5.54 0 00-.64.73 2 2 0 01-.11-.6 5 5 0 01-.17-.58s.81-.78 1.17-.79a3.79 3.79 0 001.61-.29 6.74 6.74 0 001.43-1.08l.01.12zM361.71 37.29a2.38 2.38 0 01-1.33.48 1.94 1.94 0 01-1.38-.71l.16-.28.05-.18c.164.426.502.761.93.92a2.67 2.67 0 001.57-.23z"/><path fill="#F98030" d="M364.38 44.16c-.08 1.27.63 1.36 1.68 1.26a4.07 4.07 0 0 0 2.36-1.19c.08-.25-.5-1-.72-1.6-.22-.6-1.29-1.86-2-1.61s-1.28 2.54-1.32 3.14z"/><path fill="#F3D9B8" d="M367.48 44.34c-.5.23-1.61.89-2.17.41-.56-.48.63-.65.86-.88.23-.23.26-1 .92-.49.25.21.85.68.39.96z"/><path fill="#F98030" d="M359.66 41.87c-.37.48.58 1.83 1.11 2.22a1.38 1.38 0 002.1-.23 7.46 7.46 0 001.23-2.76c-.09-.4-1.35-.72-1.91-.49a9.35 9.35 0 00-2.53 1.26zM358.82 38.72c-.15.93.15 1.31.38 1.27a3.83 3.83 0 011-.24 1.69 1.69 0 001.33-.75c.19-.48-1.2-.76-1.5-.86-.3-.1-1.03-.5-1.21.58z"/><path fill="#F3D9B8" d="M362.88 42.22a2.5 2.5 0 01-.74 1.43c-.52.37-1-.15-1.33-.52-.33-.37-.92-1.28 0-1.56.34-.1.73 0 1.08-.12.35-.12.4-.17.61-.09.21.08.44.47.38.86zM360 38.47c.49.19.94.75.23.81h.11c-.44 0-.92.32-.95-.3-.03-.62.15-.69.61-.51z"/><path fill="#F98030" d="M361.56 34.46c-.16.19-.44.29-.62.48a2.73 2.73 0 00-.4.6c-.13.23-.45.66-.33 1 .12.34.17.14.4.2s.43.11.47.2c.04.09 0 .3-.27.3A3 3 0 01360 37c-.52-.21-.72-.57-.43-1.09.48-.85.73-1.63 1.78-1.76.35-.01.46.02.21.31zM368.47 39.17c.688.237 1.394.42 2.11.55.28 0 .83-.15 1.06 0 .52.34-.62 1.67-.85 2.05-.35.54-.84 1.1-1.39.54-.33-.34-.51-.8-.85-1.15-.34-.35-.6-.44-.75-.75-.15-.31.2-1.35.67-1.24z"/><path fill="#F3D9B8" d="M370.41 41.54a.72.72 0 0 1-.38.31.52.52 0 0 1-.43-.19 1.94 1.94 0 0 1-.25-.42 2.67 2.67 0 0 0-.77-.87c-.07-.06-.16-.12-.16-.21a.22.22 0 0 1 .08-.16.64.64 0 0 1 .52-.11c.176.042.347.102.51.18.245.09.5.15.76.18.25 0 .79.05.75.43-.04.38-.48.66-.63.86z"/><path fill="#F98030" d="M319.91 37.47a20.84 20.84 0 0 0 2.46-2 9.35 9.35 0 0 0 1.73-2.95l-.32-.17-.74.84a8.89 8.89 0 0 0 .35-1l-.33-.19.12-.2-.59-.1.14-.26-.28-.08a9.15 9.15 0 0 0-1.55 1.83s.19-.77.29-1.22a1.75 1.75 0 0 0-.46-.15 24.5 24.5 0 0 0-1.39 3 7.37 7.37 0 0 0-.52 1.94c.162.14.333.27.51.39a2.5 2.5 0 0 0 .58.32z"/><path fill="#CA9677" d="M323.93 32.4l-.15-.08-.74.84a13.81 13.81 0 01-1.7 2.74 11.83 11.83 0 002.59-3.5zM323.23 32.05l-.17-.05a20.65 20.65 0 01-2.06 3.23 12.66 12.66 0 002.23-3.18zM322.79 31.7h-.2a27.22 27.22 0 01-1.68 3.11 17 17 0 001.88-3.11zM322.53 31.35a11 11 0 00-2.27 3.82s-.15-1.73 2.19-3.84l.08.02z" style="mix-blend-mode:multiply"/><path fill="#F66C03" d="M319.33 37.16a2.5 2.5 0 0 0 .58.31s.53-.37 1.19-.9c-.26.2-.94.7-1.32.63-.38-.07-.66-1.72 1.1-5.38h-.15a24.5 24.5 0 0 0-1.39 3 7.37 7.37 0 0 0-.52 1.94c.162.143.332.277.51.4z"/><path fill="#C76145" d="M322.52 31.55a15.83 15.83 0 0 0-2.2 3.9c-.42 1.56-.13 1.72.62 1.18a11 11 0 0 0 2.34-2.51 19.18 19.18 0 0 1-2.36 2.22 11.4 11.4 0 0 0 2-3.22 16.14 16.14 0 0 1-2.55 3.15 6.31 6.31 0 0 1 1-1.65 8.52 8.52 0 0 0-.83.92 15 15 0 0 1 1.98-3.99z" opacity=".7" style="mix-blend-mode:screen"/><path fill="#E26107" d="M324.75 41.82a6 6 0 0 1-1.34.6s.43-.09.68-1c.25-.91-.91-1.23-1.21-1.29 0 0 .81.72.63 1.28a1.55 1.55 0 0 1-1.35 1.12 2.34 2.34 0 0 0 .8-1.3c.17-.87-.96-1.23-.96-1.23s.59 1 .42 1.37a1.16 1.16 0 0 1-1.84.62s1.3-.44 1.05-1.54c0 0-.69 1.34-1.59 1 0 0 1.49-.86 1.48-1.87 0 0-.95 1.16-1.56.75-.61-.41-.18-1.15-.18-1.15s.49.47 1.13-.29c-.07.07-1.22.35-1.28-.62-.06-.97-1.76 1.08-1.35 2.9a4 4 0 0 0 3.13 3c1.06.08 3.22-.87 3.34-2.35z"/><path fill="#CA9677" d="M320.74 41.93h-1.02.62a.29.29 0 00.1 0H320.61l.11-.08.02.08zM320.2 41.41H319.01a.26.26 0 01-.13-.08.12.12 0 000 .07.29.29 0 00.12.13.53.53 0 00.1.06l.12.05h.95l.03-.23zM322.2 42.42l-.23.14-.11.07-.12.08a.57.57 0 01-.13.08l-.13.08-.14.08-.13.07h-.5.57l.15-.06.14-.08.14-.09.13-.1.11-.09.09-.09a1.55 1.55 0 00.16-.09zM323.56 42.33l-.33.21-.16.11-.17.12-.19.14-.19.14-.18.14-.18.14-.17.14-.14.12-.22.19-.08.08.1-.06.25-.14.16-.1.18-.12.18-.13.19-.15.19-.16.18-.15.16-.14.14-.12z"/><path fill="#F66C03" d="M316 45.08c.4 3.29 4.33 3.85 4.33 3.85a4.2 4.2 0 0 0 3.72.43 8.79 8.79 0 0 0 3.29-2.18c-.08-.08.17-.19.17-.19a8.14 8.14 0 0 0 2.69-4.42c.17-.66-.1-.9-.52-1.5l-3.53-.48s-.28.58-.35.57c-.07-.01-.42 0-.95.28l-.11.07a10.22 10.22 0 0 0-2 1.82 2.92 2.92 0 0 0-1 0 4.93 4.93 0 0 0-1.75-.92 2.13 2.13 0 0 0-.99-1.48c.83-.91 1.19-3.84 1.19-3.84s-.07-1.26-1.6-.16a7.12 7.12 0 0 0-2.17 3.49 5.74 5.74 0 0 0-.42 4.66z"/><path fill="#F5E1CD" d="M324.7 41.48a5.72 5.72 0 005.46 1.06c.84-2.54-2.48-2.44-3.52-2.39A2.18 2.18 0 00325 41l-.3.48zM321.11 49.33a7.52 7.52 0 01.49-3 3.8 3.8 0 00.2-3 4.77 4.77 0 01-.6 2.83 8.92 8.92 0 00-1.2 2.7l.4.06c.2.192.444.333.71.41zM326.58 47.89a2.87 2.87 0 01-1-1.18 7.15 7.15 0 00-2.49-3.26s1.91.68 2.4 1.55a3.94 3.94 0 002 2 5.75 5.75 0 01-.91.89zM320.05 42.45a5.46 5.46 0 01-1.52 1.66c-.76.4-1.51.59-1.78.83a5.54 5.54 0 00-.64.73 2 2 0 01-.11-.59 5.56 5.56 0 01-.17-.59s.81-.78 1.16-.79a3.81 3.81 0 001.62-.29 6.74 6.74 0 001.39-1.08l.05.12zM319 40.93a2.38 2.38 0 01-1.33.48 2 2 0 01-1.42-.71l.17-.28.05-.18c.164.426.502.761.93.92a2.67 2.67 0 001.6-.23z"/><path fill="#F98030" d="M321.62 47.8c-.08 1.27.62 1.36 1.68 1.26a4.07 4.07 0 0 0 2.36-1.19c.08-.25-.51-1-.72-1.59-.21-.59-1.29-1.87-2-1.61s-1.28 2.53-1.32 3.13z"/><path fill="#F3D9B8" d="M324.72 48c-.5.23-1.61.89-2.17.41-.56-.48.63-.65.86-.88.23-.23.26-1 .92-.49.25.19.85.66.39.96z"/><path fill="#F98030" d="M316.89 45.51c-.36.48.59 1.83 1.12 2.22a1.38 1.38 0 002.1-.23 7.46 7.46 0 001.23-2.76c-.09-.39-1.35-.72-1.91-.48a9.26 9.26 0 00-2.54 1.25zM316.06 42.36c-.15.93.14 1.31.38 1.27.24-.04.68-.28 1-.23a1.71 1.71 0 001.36-.79c.18-.48-1.2-.76-1.5-.86-.3-.1-1.07-.46-1.24.61z"/><path fill="#F3D9B8" d="M320.12 45.86a2.5 2.5 0 01-.74 1.43c-.52.37-1-.15-1.33-.51-.33-.36-.92-1.29 0-1.57.35-.1.74 0 1.09-.12.35-.12.4-.17.61-.09.21.08.43.47.37.86zM317.22 42.11c.49.19.94.75.22.82h.12c-.44 0-.93.32-.95-.3-.02-.62.17-.7.61-.52z"/><path fill="#F98030" d="M318.8 38.1c-.16.19-.44.29-.62.48a2.73 2.73 0 00-.4.6c-.13.23-.45.66-.34 1 .11.34.18.14.41.2.23.06.42.12.47.2.05.08 0 .3-.27.3a2.59 2.59 0 01-.78-.16c-.52-.21-.73-.57-.43-1.09.48-.84.72-1.63 1.77-1.76.33-.09.39-.06.19.23zM325.71 42.81c.688.237 1.394.42 2.11.55.28 0 .83-.15 1.06 0 .51.34-.62 1.67-.85 2-.35.54-.84 1.1-1.39.54-.33-.34-.51-.8-.85-1.15-.34-.35-.6-.44-.76-.75-.16-.31.16-1.3.68-1.19z"/><path fill="#F3D9B8" d="M327.65 45.18a.72.72 0 0 1-.38.31.47.47 0 0 1-.43-.19 1.61 1.61 0 0 1-.25-.42 2.79 2.79 0 0 0-.77-.87c-.08-.06-.16-.12-.17-.21a.26.26 0 0 1 .09-.18.62.62 0 0 1 .51-.11c.177.05.35.11.52.18.245.09.5.15.76.18.25 0 .79.05.75.43-.04.38-.48.7-.63.88z"/><path fill="#F98030" d="M314.94 67.18a22 22 0 0 0-.79-3.09 9.35 9.35 0 0 0-1.94-2.82l-.29.21.44 1a8.63 8.63 0 0 0-.78-.75l-.28.27-.13-.2-.34.49-.18-.23-.18.22a8.77 8.77 0 0 0 1 2.18l-1-.78a2.19 2.19 0 0 0-.34.35 25.23 25.23 0 0 0 2.16 2.55c.45.503.969.94 1.54 1.3 0 0 .23-.1.57-.29a2.87 2.87 0 0 0 .54-.41z"/><path fill="#CA9677" d="M312.06 61.38l-.14.1.44 1a13.88 13.88 0 011.76 2.71 11.72 11.72 0 00-2.06-3.81zM311.45 61.87l-.15.13a21 21 0 012.05 3.3 12.8 12.8 0 00-1.9-3.43zM310.94 62.12l-.11.16a26.55 26.55 0 012.1 2.85 16.73 16.73 0 00-1.99-3.01zM310.52 62.2a10.85 10.85 0 002.48 3.68s-1.64-.6-2.54-3.61l.06-.07z" style="mix-blend-mode:multiply"/><path fill="#F66C03" d="M314.41 67.58a2.87 2.87 0 0 0 .53-.4s-.11-.64-.31-1.46c.07.32.24 1.15 0 1.46-.24.31-1.84-.13-4.4-3.28l-.1.12a25.23 25.23 0 0 0 2.16 2.55c.45.503.969.94 1.54 1.3 0 0 .24-.1.58-.29z"/><path fill="#C76145" d="M310.69 62.3a15.74 15.74 0 0 0 2.6 3.7c1.22 1 1.49.85 1.32-.06a11 11 0 0 0-1.27-3.19 19.2 19.2 0 0 1 1 3.09 11.09 11.09 0 0 0-2.07-3.16 16.09 16.09 0 0 1 1.73 3.59 6.08 6.08 0 0 1-1-1.61c.133.39.294.772.48 1.14a14.85 14.85 0 0 1-2.79-3.5z" opacity=".7" style="mix-blend-mode:screen"/><path fill="#E26107" d="M320.93 64.65a5.63 5.63 0 0 1 0 1.47s.11-.42-.64-1.06c-.75-.64-1.5.31-1.68.55 0 0 1-.43 1.42 0a1.53 1.53 0 0 1 .45 1.69 2.36 2.36 0 0 0-.87-1.3c-.68-.52-1.47.32-1.47.32s1.12-.12 1.41.21a1.15 1.15 0 0 1-.22 1.92s.15-1.36-.94-1.61c0 0 .91 1.2.2 1.87 0 0-.14-1.72-1.06-2.15 0 0 .65 1.36 0 1.74-.65.38-1.1-.3-1.1-.3s.63-.24.21-1.14c0 .09-.19 1.25-1.1.88-.91-.37.23 2.06 2.05 2.47a4 4 0 0 0 4-1.58c.57-.89.63-3.24-.66-3.98z"/><path fill="#CA9677" d="M319.33 68.32V69.31l.09-.09.05-.07v-.09l.05-.09v-.2-.11a.41.41 0 000-.18.44.44 0 000-.13.18.18 0 01-.19-.03zM318.63 68.6l-.14.18-.07.09a.86.86 0 00-.07.1l-.09.1-.08.1a.76.76 0 00-.08.11l-.09.1-.08.09-.07.08a.24.24 0 01-.12.09h-.06.06a.28.28 0 00.18 0l.09-.07.1-.08.09-.1.1-.1.08-.12.07-.11.06-.11a1.17 1.17 0 010-.11.71.71 0 00.05-.16l.07-.08zM320.4 67.21a2.41 2.41 0 000 .27V68.89v-.06a.2.2 0 000-.08v-.13a.77.77 0 000-.15.81.81 0 000-.16v-.16-.32a1 1 0 010-.14s0-.09-.05-.13a2.1 2.1 0 00.05-.35zM320.89 65.94s0 .16.05.4v.18a1.55 1.55 0 000 .21v.23l.05.23v.23c.012.074.029.148.05.22 0 .07 0 .14.05.21.05.07 0 .12.05.18l.08.28v.1-.11-.69-.22l-.05-.23v-.23l-.06-.22c0-.08 0-.14-.06-.21a.78.78 0 00-.05-.18c0-.23-.11-.38-.11-.38z"/><path fill="#F66C03" d="M320.15 74c3.16 1 5.34-2.29 5.34-2.29a4.21 4.21 0 0 0 2-3.18 8.59 8.59 0 0 0-.58-3.9c-.1 0-.1-.24-.1-.24a8.13 8.13 0 0 0-2.88-4.39c-.52-.43-.85-.29-1.58-.17l-1.93 3s.4.5.36.55a1.4 1.4 0 0 0-.15 1 .68.68 0 0 0 0 .14c.155.886.427 1.747.81 2.56a2.8 2.8 0 0 0-.37.89 4.89 4.89 0 0 0-1.58 1.19 2.12 2.12 0 0 0-1.85.36c-.47-1.14-3-2.72-3-2.72s-1.16-.47-.82 1.38a7.14 7.14 0 0 0 2.23 3.45 5.76 5.76 0 0 0 4.1 2.37z"/><path fill="#F5E1CD" d="M320.61 64.55a5.73 5.73 0 003.32-4.55c-2-1.79-3.31 1.23-3.71 2.18a2.16 2.16 0 000 1.88l.39.49zM326.18 71.14a7.5 7.5 0 01-2.5-1.72 3.83 3.83 0 00-2.59-1.42 4.74 4.74 0 012.3 1.75 8.93 8.93 0 001.89 2.25s.12-.17.22-.33c.266-.119.5-.3.68-.53zM327.2 65.58a2.89 2.89 0 01-1.49.43 7.12 7.12 0 00-4 .86s1.44-1.46 2.44-1.54a3.88 3.88 0 002.65-1c.186.398.32.818.4 1.25zM319.51 69.17a5.55 5.55 0 01.85 2.08c0 .86-.11 1.62 0 2 .107.303.238.597.39.88a2 2 0 01-.58-.14 5 5 0 01-.61-.1s-.36-1.07-.22-1.39a3.87 3.87 0 00.43-1.58 6.68 6.68 0 00-.37-1.76l.11.01zM317.66 69.53c.1.47.054.957-.13 1.4a2 2 0 01-1.24 1l-.19-.27-.1-.14a1.6 1.6 0 001.23-.46 2.61 2.61 0 00.43-1.53z"/><path fill="#F98030" d="M325 70c1.11.61 1.49 0 1.85-1a4 4 0 0 0-.08-2.64c-.18-.17-1.11 0-1.75 0-.64 0-2.23.37-2.28 1.07-.05.7 1.75 2.31 2.26 2.57z"/><path fill="#F3D9B8" d="M326.5 67.3c0 .55.12 1.84-.55 2.14-.67.3-.33-.85-.44-1.15-.17-.49-.82-.68 0-1 .25-.18.92-.52.99.01z"/><path fill="#F98030" d="M320.93 73.33c.28.53 1.9.25 2.48-.07a1.37 1.37 0 00.69-2c-.6-.93-1.58-2.19-2-2.28-.42-.09-1.22.91-1.25 1.52a9.49 9.49 0 00.08 2.83zM317.73 72.75c.77.53 1.24.42 1.31.19.07-.23 0-.74.2-1a1.7 1.7 0 00-.14-1.56c-.35-.37-1.19.76-1.41 1-.22.24-.86.75.04 1.37z"/><path fill="#F3D9B8" d="M322.62 70.56a2.56 2.56 0 011 1.28c.11.63-.57.85-1 1-.43.15-1.56.29-1.41-.67.05-.36.28-.68.35-1 0-.21 0-.43.18-.59.18-.16.55-.23.88-.02zM318.9 71.56v.06-.06zM318 71.59c.38-.36 1.08-.53.84.14v-.11c-.15.42-.1 1-.67.74-.57-.26-.53-.45-.17-.77z"/><path fill="#F98030" d="M315 68.45c.11.23.08.53.17.77.1.222.228.43.38.62.15.21.4.69.72.7.32.01.2-.09.35-.27.15-.18.28-.34.38-.35.26 0 .25.17.16.37a2.92 2.92 0 01-.48.65c-.41.37-.82.41-1.17-.08-.56-.79-1.16-1.35-.84-2.36.13-.31.2-.39.33-.05zM322.24 64.21a14.75 14.75 0 001.39-1.68c.16-.24.22-.81.45-1 .53-.32 1.26 1.27 1.49 1.64.35.55.65 1.23-.1 1.49-.44.15-.94.12-1.39.28a3.82 3.82 0 01-1 .36c-.52.06-1.16-.68-.84-1.09z"/><path fill="#F3D9B8" d="M325.21 63.46a.62.62 0 0 1 .11.47.46.46 0 0 1-.35.31 1.91 1.91 0 0 1-.48.05 2.74 2.74 0 0 0-1.12.33.35.35 0 0 1-.26.06.25.25 0 0 1-.12-.16.6.6 0 0 1 .12-.51 2.72 2.72 0 0 1 .37-.39A3.2 3.2 0 0 0 324 63c.13-.22.38-.69.71-.5.33.19.38.73.5.96z"/><path fill="#2F0B00" d="M334.45 65c-2.14-2.49-5.63 1-4 3.53s5.88-1.3 4-3.53zm-3.57 3.14c-1.27-2 1.47-4.71 3.14-2.76 1.47 1.75-1.86 4.75-3.14 2.8v-.04z"/><path fill="#4F2530" d="M334.06 65.38c-1.72-2-4.53.84-3.22 2.84s4.73-1.08 3.22-2.84zm-2.63 2.32c-.83-1.27 1-3.08 2-1.81s-1.17 3.11-2 1.81z"/><path fill="#2F0B00" d="M388 85.61c-3.4-4-9 1.66-6.38 5.61s9.32-2.12 6.38-5.61zm-5.68 5c-2-3.1 2.33-7.5 5-4.4 2.29 2.73-3.02 7.5-5.05 4.4h.05z"/><path fill="#4F2530" d="M387.33 86.16c-2.73-3.18-7.2 1.33-5.12 4.51 2.08 3.18 7.52-1.67 5.12-4.51zm-4.18 3.68c-1.33-2 1.52-4.9 3.26-2.87 1.53 1.78-1.94 4.9-3.26 2.87z"/><path fill="#2F0B00" d="M350.14 44.66c-.17-4.33-6.68-3.54-7 .36-.32 3.9 7.15 3.44 7-.36zm-6.26.34c.28-3.06 5.38-3.67 5.51-.28.12 2.96-5.79 3.33-5.51.28z"/><path fill="#4F2530" d="M349.46 44.7c-.14-3.48-5.37-2.85-5.65.29-.28 3.14 5.77 2.76 5.65-.29zm-4.62.24c.18-2 3.52-2.4 3.61-.19.07 1.95-3.79 2.19-3.61.19z"/><path fill="#2F0B00" d="M364.64 80.66c-.16-4.16-6.43-3.41-6.77.35-.34 3.76 6.91 3.31 6.77-.35zm-6 .31c.27-2.94 5.18-3.54 5.3-.27.06 2.87-5.6 3.22-5.33.3l.03-.03z"/><path fill="#4F2530" d="M364 80.69c-.13-3.34-5.16-2.73-5.44.29-.28 3.02 5.54 2.66 5.44-.29zm-4.44.24c.17-1.93 3.38-2.32 3.46-.18.06 1.87-3.66 2.1-3.48.18h.02z"/><path fill="#2F0B00" d="M378.46 35.86c2.27-2.37-1.59-5.5-3.9-3.64-2.31 1.86 1.91 5.78 3.9 3.64zM375 32.62c1.81-1.46 4.83 1 3.05 2.85-1.57 1.64-4.88-1.39-3.05-2.85z"/><path fill="#4F2530" d="M378.08 35.51c1.82-1.9-1.27-4.42-3.13-2.92-1.86 1.5 1.53 4.59 3.13 2.92zm-2.56-2.39c1.19-.95 3.16.65 2 1.87-1.02 1.06-3.18-.91-2-1.87z"/><path fill="#F98030" d="M342.77 34.62a21.79 21.79 0 0 0-1.62 2.74 9.22 9.22 0 0 0-.62 3.36l.35.06.42-1a8.58 8.58 0 0 0 0 1.09h.36v.23l.59-.11v.29h.29a9.09 9.09 0 0 0 .77-2.28s.08.79.14 1.24c.16.02.32.02.48 0a24.84 24.84 0 0 0 .28-3.33 7.38 7.38 0 0 0-.17-2s-.24-.09-.61-.19a3 3 0 0 0-.66-.1z"/><path fill="#CA9677" d="M340.72 40.75h.16l.42-1a13.48 13.48 0 01.7-3.17 11.71 11.71 0 00-1.28 4.17zM341.49 40.84h.19a20.73 20.73 0 01.88-3.79 13 13 0 00-1.07 3.79zM342 41h.19a26.08 26.08 0 01.53-3.5A16.61 16.61 0 00342 41zM342.38 41.26c.58-1.38.865-2.864.84-4.36 0 0 .73 1.58-.75 4.35l-.09.01z" style="mix-blend-mode:multiply"/><path fill="#F66C03" d="M343.43 34.71a3 3 0 0 0-.66-.09s-.37.53-.81 1.25c.18-.28.65-1 1-1s1.2 1.39.79 5.43h.15a24.84 24.84 0 0 0 .28-3.33 7.38 7.38 0 0 0-.17-2s-.21-.16-.58-.26z"/><path fill="#C76145" d="M342.33 41.07a16 16 0 0 0 .74-4.42c-.13-1.6-.46-1.66-1-.89a10.7 10.7 0 0 0-1.36 3.15 18.55 18.55 0 0 1 1.5-2.91 11.23 11.23 0 0 0-.77 3.7 15.8 15.8 0 0 1 1.33-3.82 6.35 6.35 0 0 1-.39 1.89 7.72 7.72 0 0 0 .47-1.15 14.69 14.69 0 0 1-.52 4.45z" opacity=".7" style="mix-blend-mode:screen"/><path fill="#E26107" d="M336.75 32.17a5.74 5.74 0 0 1 1.06-1s-.38.22-.3 1.2c.08.98 1.28.85 1.58.8 0 0-1-.4-1-1a1.54 1.54 0 0 1 .91-1.52 2.35 2.35 0 0 0-.31 1.5c.12.84 1.27.81 1.27.81s-.88-.71-.85-1.15c.03-.44.28-1.55 1.51-1.2 0 0-1.07.85-.47 1.8 0 0 .2-1.49 1.17-1.46 0 0-1.11 1.31-.76 2.26 0 0 .5-1.41 1.21-1.24.71.17.57 1 .57 1s-.62-.27-1 .66c0-.09 1-.75 1.4.16.4.91 1.26-1.6.26-3.17a4 4 0 0 0-4-1.73c-.94.22-2.64 1.84-2.25 3.28z"/><path fill="#CA9677" d="M340.48 30.7l.11-.06H340.74l.08-.05h.09l.09-.05h.24l.11-.06H340.8l-.09.05-.09.06-.07.07-.06.06a.49.49 0 00-.07.11l.06-.13zM341.16 31h1.37a.12.12 0 000-.06.31.31 0 00-.16-.09h-.24a.66.66 0 00-.14 0h-.64l-.15.07-.04.08zM338.94 30.74l.17-.21.16-.22.1-.12.09-.12.11-.12.1-.11.1-.1.1-.08.07-.05h.06-.14l-.12.07-.12.08-.12.11-.11.12a1.47 1.47 0 01-.1.13 1 1 0 00-.08.14l-.08.12-.05.12a1.81 1.81 0 00-.14.24zM337.69 31.29l.24-.32.11-.15.12-.18.13-.19.13-.19.13-.2.12-.19.11-.19.09-.16.14-.25.05-.1-.07.08-.19.22-.12.15-.12.17a2.14 2.14 0 00-.13.19l-.13.2-.13.2-.11.19-.11.19-.09.17c-.11.21-.17.36-.17.36z"/><path fill="#F66C03" d="M343.87 26.13c-1.49-3-5.39-2.15-5.39-2.15a4.19 4.19 0 0 0-3.64.86 8.62 8.62 0 0 0-2.35 3.16c.1 0-.09.23-.09.23a8.19 8.19 0 0 0-1 5.08c.07.67.4.8 1 1.23l3.48-.75s.07-.64.14-.65c.07-.01.41-.11.8-.59a9.86 9.86 0 0 0 1.31-2.49 2.75 2.75 0 0 0 .9-.37A5 5 0 0 0 341 30a2.1 2.1 0 0 0 1.5 1c-.46 1.14.19 4 .19 4s.49 1.16 1.56-.39a7.18 7.18 0 0 0 .85-4 5.77 5.77 0 0 0-1.23-4.48z"/><path fill="#F5E1CD" d="M336.9 32.47a5.74 5.74 0 00-5.5.87c.13 2.64 3.22 1.46 4.17 1.07a2.17 2.17 0 001.26-1.41l.07-.53zM337.62 23.87a7.35 7.35 0 01.55 3 3.79 3.79 0 00.83 2.83 4.78 4.78 0 01-.39-2.86 8.88 8.88 0 00.24-2.91l-.4.07a1.78 1.78 0 00-.83-.13zM333 27.08a3 3 0 011.37.76 7.12 7.12 0 003.45 2.22 5.79 5.79 0 01-2.82-.64 3.91 3.91 0 00-2.56-1.18 5.58 5.58 0 01.56-1.16zM341 30a5.51 5.51 0 01.87-2.08c.486-.44.95-.904 1.39-1.39a5.57 5.57 0 00.35-.89c.13.153.234.325.31.51.131.158.251.325.36.5 0 0-.5 1-.83 1.14a3.84 3.84 0 00-1.42.82 6.6 6.6 0 00-1 1.5L341 30zM342.5 31a2.4 2.4 0 011.09-.9 2 2 0 011.57.19l-.06.31v.19a1.58 1.58 0 00-1.18-.54 2.68 2.68 0 00-1.42.75z"/><path fill="#F98030" d="M337.66 25.48c-.35-1.22-1-1.07-2-.61a3.94 3.94 0 0 0-1.81 1.92c0 .25.81.76 1.22 1.25.41.49 1.84 1.31 2.37.85.53-.46.39-2.83.22-3.41z"/><path fill="#F3D9B8" d="M334.68 26.36c.4-.38 1.21-1.38 1.9-1.12.69.26-.37.83-.5 1.12-.22.47.1 1.06-.71.77-.3-.13-1.02-.35-.69-.77z"/><path fill="#F98030" d="M342.88 26c.18-.58-1.17-1.52-1.8-1.71a1.38 1.38 0 00-1.9.93 7.68 7.68 0 00-.22 3c.22.34 1.52.22 2-.19.48-.41 1.76-1.48 1.92-2.03zM344.74 28.7c-.18-.92-.59-1.18-.8-1.05-.21.13-.54.49-.83.54a1.74 1.74 0 00-1 1.2c0 .52 1.39.31 1.71.3.32-.01 1.12.09.92-.99z"/><path fill="#F3D9B8" d="M339.73 26.79a2.47 2.47 0 01.21-1.59c.36-.53 1-.2 1.42 0 .42.2 1.31.9.52 1.48-.29.21-.68.28-1 .48-.32.2-.32.29-.55.29-.23 0-.52-.27-.6-.66zM343.07 28.72h.06-.06zM343.73 29.34c-.53 0-1.14-.39-.49-.69h-.11c.4-.18.76-.62 1 0s.07.71-.4.69z"/><path fill="#F98030" d="M343.61 33.65c.08-.24.31-.43.42-.66a2.86 2.86 0 00.17-.7c0-.26.2-.78 0-1-.2-.22-.21-.08-.45-.06-.24.02-.44 0-.51 0s-.06-.29.15-.36a3 3 0 01.79-.13c.56 0 .88.3.78.89-.16.95-.13 1.77-1.08 2.26-.29.11-.41.11-.27-.24zM335.5 31.56a14.35 14.35 0 00-2.17.2c-.27.06-.72.42-1 .36-.6-.14 0-1.78.11-2.21.14-.64.41-1.32 1.12-1 .42.2.75.58 1.18.79a3.31 3.31 0 011 .45c.35.37.26 1.34-.24 1.41z"/><path fill="#F3D9B8" d="M332.88 30a.68.68 0 0 1 .25-.42.49.49 0 0 1 .47 0c.136.092.263.195.38.31.288.258.63.45 1 .56.08 0 .18.06.22.14a.24.24 0 0 1 0 .2.62.62 0 0 1-.44.28 2.53 2.53 0 0 1-.55 0c-.26 0-.518.03-.77.09-.25.07-.77.22-.85-.15-.08-.37.21-.77.29-1.01z"/></g></g></svg>